<?xml version="1.0" encoding="UTF-8" standalone="no"?>
<!DOCTYPE svg PUBLIC "-//W3C//DTD SVG 1.1//EN" "http://www.w3.org/Graphics/SVG/1.1/DTD/svg11.dtd">
<svg width="100%" height="100%" viewBox="0 0 600 300" version="1.1" xmlns="http://www.w3.org/2000/svg" xmlns:xlink="http://www.w3.org/1999/xlink" xml:space="preserve" xmlns:serif="http://www.serif.com/" style="fill-rule:evenodd;clip-rule:evenodd;stroke-linejoin:round;stroke-miterlimit:2;">
    <g transform="matrix(2.56695,0,0,2.56695,-174.713,-171.046)">
        <path d="M87.766,129.244L87.595,129.586C87.53,129.765 87.367,129.854 87.106,129.854C87.074,129.854 86.805,129.952 86.301,130.147C85.796,130.342 85.382,130.44 85.057,130.44L84.402,130.489C84.014,130.489 83.634,130.379 83.262,130.159C82.89,129.94 82.622,129.74 82.46,129.561C82.297,129.382 82.073,128.845 81.788,127.95C81.503,127.055 81.361,126.518 81.361,126.339C81.361,125.704 81.532,125.354 81.874,125.289C81.874,125.191 81.796,125.008 81.642,124.739C81.487,124.471 81.41,124.32 81.41,124.288C81.41,123.279 81.63,122.497 82.069,121.944C81.874,121.309 81.776,120.959 81.776,120.894C81.776,120.862 81.817,120.727 81.898,120.491C81.98,120.255 82.037,120.04 82.069,119.844C82.102,119.649 82.15,119.486 82.216,119.356L82.264,118.941C82.297,118.746 82.419,118.648 82.631,118.648C82.728,118.648 82.777,118.583 82.777,118.453L82.777,118.257L82.728,117.94C82.728,117.484 82.841,117.155 83.068,116.951C83.294,116.748 83.444,116.447 83.517,116.048C83.589,115.649 83.682,115.401 83.796,115.303C83.909,115.206 83.998,115.035 84.062,114.791L84.402,114.107L84.669,113.204C84.701,113.025 84.798,112.911 84.96,112.862C85.122,112.813 85.202,112.74 85.202,112.642L85.154,112.349C85.284,112.007 85.373,111.763 85.422,111.617C85.471,111.47 85.617,111.348 85.861,111.251C86.089,110.697 86.289,110.307 86.459,110.079C86.63,109.851 86.765,109.59 86.862,109.298C86.96,109.005 87.204,108.72 87.595,108.443C87.627,108.378 87.696,108.211 87.802,107.943C87.908,107.674 88.042,107.523 88.205,107.491C88.368,107.458 88.449,107.393 88.449,107.296L88.352,107.1C88.352,106.97 88.474,106.734 88.718,106.392L89.011,105.855C89.157,105.692 89.32,105.57 89.499,105.489C89.727,105.033 90.02,104.577 90.378,104.122C90.736,103.666 91.045,103.178 91.306,102.657C91.68,102.217 92.03,101.9 92.355,101.705L93.161,100.704C93.356,100.297 93.552,100.093 93.747,100.093C94.056,99.507 94.439,99.125 94.894,98.946C94.976,98.913 95.208,98.738 95.59,98.421C95.973,98.104 96.31,97.945 96.603,97.945C96.864,97.945 97.198,98.23 97.604,98.799C98.011,99.369 98.215,99.849 98.215,100.24C98.215,100.338 98.162,100.48 98.056,100.667C97.95,100.854 97.889,101.05 97.873,101.253C97.857,101.457 97.759,102.03 97.58,102.974C97.401,103.918 97.246,104.455 97.116,104.586L96.457,105.855C96.392,106.05 96.319,106.164 96.237,106.197C96.156,106.229 96.058,106.36 95.944,106.588L96.066,107.1L96.018,107.1C95.838,107.296 95.651,107.662 95.456,108.199C95.196,108.59 94.972,108.96 94.785,109.31C94.597,109.66 94.504,109.892 94.504,110.006L94.357,110.347C93.999,110.884 93.763,111.316 93.649,111.641C93.487,111.771 93.36,111.951 93.271,112.178C93.181,112.406 93.063,112.573 92.917,112.679C92.77,112.785 92.677,112.968 92.636,113.228C92.595,113.489 92.551,113.643 92.502,113.692L92.014,113.643L92.014,113.692L92.062,114.4C92.062,114.465 91.985,114.538 91.831,114.62C91.676,114.701 91.542,114.876 91.428,115.145C91.314,115.413 91.11,115.564 90.817,115.596C90.671,115.694 90.581,115.792 90.549,115.889L90.646,116.353C90.614,116.386 90.488,116.557 90.268,116.866C90.048,117.175 89.914,117.338 89.865,117.354L89.352,117.403C89.255,117.436 89.206,117.72 89.206,118.257C89.206,118.616 89.043,118.86 88.718,118.99C87.871,120.292 87.379,121.016 87.241,121.163C87.102,121.309 86.838,121.423 86.447,121.505C86.447,121.537 86.415,121.553 86.35,121.553C86.187,121.553 85.837,121.317 85.3,120.845L85.251,120.845C85.041,121.789 84.875,122.326 84.754,122.457C84.632,122.587 84.572,122.733 84.572,122.896L84.814,123.336L84.814,123.409C84.814,123.865 84.733,124.426 84.572,125.093L84.572,125.24L84.669,125.753L84.669,126.656L84.62,127.193C84.75,127.421 84.814,127.624 84.814,127.803C84.814,128.324 84.944,128.585 85.202,128.585C85.332,128.585 85.536,128.422 85.812,128.096L86.105,127.95C86.398,127.82 86.679,127.527 86.948,127.071C87.216,126.615 87.351,126.225 87.351,125.899C87.351,125.557 87.017,125.386 86.35,125.386C86.024,125.321 85.861,124.971 85.861,124.337C85.861,124.044 85.983,123.779 86.227,123.543C86.472,123.307 86.683,123.059 86.862,122.798C87.253,122.196 87.668,121.895 88.107,121.895L89.352,121.456C89.483,121.456 89.609,121.48 89.731,121.529C89.853,121.578 90.012,121.635 90.207,121.7C90.728,121.505 90.996,121.407 91.013,121.407C91.582,121.407 91.965,121.7 92.16,122.286C92.16,122.4 92.29,122.457 92.551,122.457C93.12,122.457 93.596,122.282 93.979,121.932C94.361,121.582 94.768,121.297 95.2,121.077C95.631,120.858 95.981,120.63 96.249,120.394C96.518,120.158 96.685,120.04 96.75,120.04L97.116,120.04C97.149,120.04 97.246,119.934 97.409,119.722C97.572,119.511 97.873,119.405 98.312,119.405C98.475,119.405 98.557,119.47 98.557,119.6C98.557,120.463 98.43,120.972 98.178,121.126C97.926,121.281 97.621,121.635 97.263,122.188L96.994,122.335C96.831,122.481 96.685,122.644 96.555,122.823C96.424,123.002 96.294,123.108 96.164,123.14C95.79,123.71 95.505,123.995 95.31,123.995C95.212,123.995 95.102,123.954 94.98,123.873C94.858,123.791 94.781,123.751 94.748,123.751C94.65,123.751 94.569,123.946 94.504,124.337C94.406,124.483 94.138,124.719 93.698,125.045C93.633,125.045 93.519,124.947 93.356,124.752C93.356,124.719 93.34,124.703 93.308,124.703C93.047,124.703 92.888,124.849 92.831,125.142C92.775,125.435 92.591,125.598 92.282,125.631L91.306,125.801L90.744,125.753C90.614,125.753 90.333,126.151 89.902,126.949C89.47,127.746 89.206,128.161 89.108,128.194C88.604,128.357 88.254,128.658 88.059,129.097L87.766,129.244ZM96.09,101.241L96.09,100.948C95.716,101.046 95.447,101.396 95.284,101.998L95.089,102.193C94.78,102.388 94.536,102.661 94.357,103.011C94.178,103.361 93.885,103.788 93.478,104.293L93.38,104.586L92.819,105.294L92.721,105.757C92.688,105.823 92.566,105.928 92.355,106.075C92.143,106.221 92.001,106.421 91.927,106.673C91.854,106.925 91.675,107.226 91.39,107.576C91.105,107.926 90.91,108.162 90.804,108.284C90.699,108.406 90.507,108.842 90.231,109.59L90.084,109.835C90.084,109.981 90.003,110.103 89.84,110.201L88.937,111.299C88.937,111.365 88.904,111.601 88.839,112.007C88.595,112.04 88.44,112.138 88.375,112.3L87.985,113.204C87.952,113.301 87.871,113.415 87.74,113.546C87.529,114.327 87.228,114.896 86.837,115.255L86.276,116.402C86.21,116.532 86.162,116.711 86.129,116.939L86.08,117.086C85.885,117.46 85.787,117.745 85.787,117.94C85.787,118.005 85.771,118.209 85.738,118.55L85.787,118.55C85.82,118.55 85.885,118.51 85.983,118.428C86.08,118.347 86.21,118.253 86.373,118.148C86.536,118.042 86.666,117.842 86.764,117.549C86.861,117.257 87.02,117.049 87.24,116.927C87.46,116.805 87.602,116.679 87.667,116.548L89.132,114.595C89.23,114.465 89.364,114.315 89.535,114.144C89.706,113.973 89.791,113.839 89.791,113.741L89.986,113.399C90.084,113.301 90.251,113.122 90.487,112.862C90.723,112.602 90.906,112.423 91.036,112.325C91.167,112.227 91.24,112.073 91.256,111.861C91.272,111.649 91.362,111.43 91.525,111.202L91.622,111.007C91.801,110.795 91.948,110.64 92.062,110.543C92.176,110.445 92.241,110.339 92.257,110.225C92.273,110.111 92.46,109.9 92.819,109.59C92.851,109.346 93.042,108.952 93.392,108.406C93.742,107.861 94.007,107.369 94.186,106.929C94.365,106.49 94.54,106.185 94.711,106.014C94.882,105.843 94.991,105.538 95.04,105.098L95.284,104.708L96.041,102.608L95.919,102.095L96.09,101.241Z" style="fill:rgb(51,51,51);fill-rule:nonzero;"/>
        <path d="M97.718,120.357L98.231,119.942C98.622,119.91 98.833,119.706 98.865,119.332C98.898,118.957 99.166,118.632 99.67,118.355L99.963,117.94C100.207,117.696 100.874,117.379 101.964,116.988C102.241,116.825 102.428,116.679 102.525,116.548C102.558,116.516 102.59,116.5 102.623,116.5L103.013,116.597C103.225,116.597 103.497,116.54 103.831,116.426C104.164,116.312 104.485,116.256 104.794,116.256L105.819,116.207C105.884,116.207 106.018,116.256 106.222,116.353C106.425,116.451 106.673,116.5 106.966,116.5C107.324,116.5 107.653,116.662 107.954,116.988C108.255,117.313 108.405,117.615 108.405,117.891C108.405,118.396 108.145,118.909 107.626,119.429C107.106,119.95 106.692,120.243 106.383,120.308C106.107,120.585 105.895,120.76 105.749,120.833C105.603,120.906 105.453,121.02 105.298,121.175C105.144,121.33 105.018,121.407 104.921,121.407C104.856,121.407 104.807,121.387 104.774,121.346C104.742,121.305 104.693,121.285 104.628,121.285C104.368,121.285 104.084,121.602 103.775,122.237L103.337,122.188C103.061,122.367 102.882,122.562 102.801,122.774C102.719,122.986 102.549,123.091 102.289,123.091C101.688,123.694 101.282,123.995 101.07,123.995C101.038,123.995 100.924,123.962 100.729,123.897C100.599,124.06 100.534,124.231 100.534,124.41C100.534,124.605 100.404,124.719 100.144,124.752L99.828,125.045L99.584,124.996L99.096,125.508C98.853,125.508 98.601,125.59 98.341,125.753C98.309,125.948 98.26,126.196 98.195,126.497C98.129,126.798 98.097,126.965 98.097,126.998C98.097,127.47 98.528,127.706 99.391,127.706L100.563,127.535C100.872,127.535 101.161,127.453 101.43,127.291C101.698,127.128 101.987,127.047 102.297,127.047C102.395,127.047 102.541,127.014 102.736,126.949L102.98,127.047C103.094,126.802 103.306,126.583 103.615,126.387C103.925,126.192 104.169,126.094 104.348,126.094L104.592,125.948C104.657,125.753 104.755,125.622 104.885,125.557L105.08,125.386C105.211,125.256 105.333,125.191 105.447,125.191L105.788,125.191L105.886,125.142C106.081,124.719 106.354,124.471 106.704,124.398C107.054,124.324 107.274,124.206 107.364,124.044C107.453,123.881 107.612,123.783 107.84,123.751C108.068,123.718 108.259,123.608 108.413,123.421C108.568,123.234 108.759,123.059 108.987,122.896C109.215,122.733 109.374,122.611 109.464,122.53C109.553,122.449 109.63,122.408 109.696,122.408C109.793,122.408 109.842,122.481 109.842,122.628C109.842,122.774 109.875,122.847 109.94,122.847C110.005,122.847 110.037,122.815 110.037,122.75C110.037,122.685 110.021,122.603 109.988,122.506L109.988,122.335C109.988,122.09 110.119,121.928 110.379,121.846L111.478,121.138C111.511,120.797 111.604,120.597 111.759,120.54C111.913,120.483 112.031,120.418 112.113,120.345C112.194,120.272 112.284,120.235 112.381,120.235C112.593,120.235 112.699,120.357 112.699,120.601L112.577,121.236L112.699,121.895C112.699,121.993 112.621,122.127 112.467,122.298C112.312,122.469 112.194,122.729 112.112,123.079C112.031,123.429 111.925,123.62 111.795,123.653L111.648,123.653C111.355,123.962 111.123,124.145 110.952,124.202C110.781,124.259 110.646,124.361 110.548,124.507L109.718,125.46C109.555,125.622 109.416,125.769 109.302,125.899C109.188,126.029 109.099,126.094 109.034,126.094L108.838,125.899C108.838,125.867 108.806,125.85 108.741,125.85C108.578,125.85 108.476,125.948 108.435,126.143C108.394,126.339 108.309,126.509 108.178,126.656C107.69,126.884 107.372,127.095 107.225,127.291L107.079,127.34L106.639,127.34C106.428,127.34 106.281,127.498 106.2,127.816C106.118,128.133 105.886,128.316 105.503,128.365C105.12,128.414 104.848,128.511 104.685,128.658C104.652,128.69 104.579,128.723 104.465,128.756C104.351,128.788 104.122,128.918 103.78,129.146L101.728,129.879C101.565,129.96 101.459,130.001 101.41,130.001L100.726,130.098C100.628,130.098 100.531,130.033 100.433,129.903C100.335,129.773 100.27,129.708 100.238,129.708L99.798,129.854C99.472,129.952 99.163,130.001 98.869,130.001C98.706,130.001 98.527,129.944 98.332,129.83C98.136,129.716 97.982,129.634 97.868,129.586C97.395,129.586 97.061,129.219 96.866,128.487L96.573,128.536C96.507,128.536 96.288,127.958 95.913,126.802C95.815,126.672 95.661,126.579 95.449,126.522C95.238,126.465 95.132,126.306 95.132,126.046C95.132,125.313 95.29,124.821 95.608,124.569C95.925,124.316 96.1,124.125 96.133,123.995L96.474,122.725C96.539,122.676 96.621,122.514 96.718,122.237L97.279,121.212C97.345,121.098 97.491,120.813 97.718,120.357ZM102.882,118.892L102.589,119.039C102.524,119.071 102.332,119.214 102.015,119.466C101.698,119.718 101.388,119.922 101.087,120.076C100.786,120.231 100.477,120.634 100.16,121.285C99.842,121.936 99.683,122.31 99.683,122.408C99.683,122.506 99.732,122.554 99.83,122.554L100.66,122.188C100.969,122.042 101.258,121.854 101.527,121.627C101.795,121.399 102.182,121.122 102.686,120.797L102.882,120.601C102.914,120.536 103.065,120.418 103.333,120.247C103.602,120.076 103.801,119.91 103.931,119.747L104.176,119.649C104.452,119.21 104.733,118.941 105.018,118.843C105.303,118.746 105.445,118.648 105.445,118.55C105.445,118.355 105.291,118.257 104.981,118.257C104.851,118.257 104.656,118.339 104.395,118.502L103.834,118.502C103.769,118.502 103.59,118.599 103.297,118.795L102.882,118.892Z" style="fill:rgb(51,51,51);fill-rule:nonzero;"/>
        <path d="M112.653,123.238L112.653,122.994C112.653,122.831 112.816,122.481 113.141,121.944C113.466,121.407 113.84,121.057 114.263,120.894C114.296,120.894 114.312,120.878 114.312,120.845L114.263,120.455C114.328,120.39 114.491,120.178 114.751,119.82C115.011,119.462 115.263,119.307 115.507,119.356C115.686,119.096 115.914,118.88 116.19,118.709C116.467,118.538 116.719,118.314 116.946,118.038L117.849,117.476C118.483,117.053 118.947,116.841 119.239,116.841L119.606,116.841C119.801,116.516 120.061,116.353 120.386,116.353C120.695,116.353 120.899,116.402 120.996,116.5C121.029,116.532 121.061,116.548 121.094,116.548C121.11,116.548 121.208,116.483 121.386,116.353C121.565,116.223 121.785,116.158 122.045,116.158C122.11,116.158 122.476,116.288 123.143,116.548C123.338,116.353 123.525,116.256 123.704,116.256C123.769,116.256 123.883,116.304 124.045,116.402C124.208,116.5 124.375,116.585 124.546,116.658C124.716,116.732 124.883,117.033 125.046,117.562C125.208,118.091 125.29,118.388 125.29,118.453C125.29,118.713 125.074,119.018 124.644,119.368C124.214,119.718 123.812,119.893 123.438,119.893C123.308,119.893 123.146,119.779 122.951,119.551C122.464,119.454 122.049,119.332 121.708,119.185C121.254,119.283 120.904,119.405 120.661,119.551L120.612,119.551L120.393,119.356L120.198,119.307L120.149,119.307C120.101,119.372 120.036,119.486 119.954,119.649C119.695,119.828 119.471,119.946 119.285,120.003C119.098,120.06 118.948,120.15 118.834,120.272C118.72,120.394 118.529,120.52 118.261,120.65C117.993,120.78 117.794,120.959 117.664,121.187C117.34,121.366 117.104,121.472 116.958,121.505L116.812,121.505C116.682,121.765 116.381,122.196 115.91,122.798L115.277,123.848C115.131,123.979 114.952,124.129 114.74,124.3C114.528,124.471 114.423,124.621 114.423,124.752C114.423,124.784 114.439,124.866 114.472,124.996L114.472,125.24C114.472,125.338 114.394,125.456 114.24,125.594C114.085,125.732 114.008,125.834 114.008,125.899L114.056,126.436L113.861,127.291C113.861,127.795 114.227,128.048 114.96,128.048L115.326,128.048L116.375,127.877C116.716,127.828 117,127.779 117.228,127.73C117.456,127.681 117.586,127.657 117.618,127.657C117.651,127.657 117.781,127.567 118.008,127.388L118.253,127.388L118.472,127.34C118.537,126.998 119,126.713 119.862,126.485C120.057,126.192 120.386,125.976 120.85,125.838C121.313,125.7 121.78,125.403 122.252,124.947L122.618,124.947C122.667,124.947 122.817,124.853 123.069,124.666C123.321,124.479 123.581,124.328 123.85,124.215C124.118,124.101 124.284,124.003 124.349,123.922C124.414,123.84 124.536,123.767 124.715,123.702C125.008,123.246 125.357,122.961 125.764,122.847L125.861,122.75C126.122,122.522 126.284,122.408 126.349,122.408L126.642,122.457C126.804,122.457 126.906,122.355 126.947,122.152C126.987,121.948 127.248,121.671 127.727,121.321C128.207,120.972 128.512,120.797 128.642,120.797C128.951,120.797 129.105,120.959 129.105,121.285C129.105,121.529 128.967,121.667 128.69,121.7C128.869,122.123 128.959,122.359 128.959,122.408C128.959,122.945 128.69,123.295 128.153,123.458C128.088,123.49 128.056,123.539 128.056,123.604L128.007,124.044C128.023,124.044 128.023,124.056 128.007,124.08C127.991,124.105 127.958,124.141 127.909,124.19L127.543,124.239L127.445,124.385C127.087,124.581 126.672,124.914 126.2,125.386L125.712,125.899L125.639,125.899C125.476,125.736 125.346,125.655 125.248,125.655C125.183,125.655 125.102,125.769 125.004,125.997C124.451,126.55 124.052,126.868 123.808,126.949C123.711,126.981 123.54,127.112 123.296,127.34L122.807,127.657L122.441,127.657C122.392,127.706 122.348,127.775 122.307,127.864C122.266,127.954 122.124,128.088 121.88,128.267C121.636,128.446 121.461,128.605 121.355,128.743C121.249,128.882 121.099,128.983 120.903,129.048L120.464,128.951C120.318,129.211 120.049,129.341 119.659,129.341C119.561,129.407 119.419,129.533 119.231,129.72C119.044,129.907 118.918,130.001 118.853,130.001C118.788,130.001 118.617,129.903 118.34,129.708L118.292,129.708C118.129,129.708 118.047,129.83 118.047,130.074C118.047,130.318 117.897,130.448 117.596,130.465C117.295,130.481 117.014,130.562 116.754,130.709L116.705,130.709C116.331,130.709 116.062,130.639 115.9,130.501C115.737,130.363 115.59,130.261 115.46,130.196C114.956,130.359 114.687,130.44 114.655,130.44C114.459,130.44 114.272,130.359 114.093,130.196L113.044,129.659C112.979,129.61 112.865,129.39 112.702,129L112.555,128.804C112.035,128.707 111.685,128.17 111.506,127.193L111.31,126.607C111.278,126.575 111.261,126.501 111.261,126.387C111.261,126.225 111.327,125.976 111.457,125.643C111.587,125.309 111.717,124.861 111.847,124.3C111.978,123.738 112.246,123.384 112.653,123.238Z" style="fill:rgb(51,51,51);fill-rule:nonzero;"/>
        <path d="M126.493,123.14L126.493,123.043L126.639,122.896C126.639,122.798 126.732,122.64 126.919,122.42C127.106,122.2 127.224,122.025 127.273,121.895C127.322,121.765 127.403,121.667 127.517,121.602C127.63,121.537 127.732,121.419 127.821,121.248C127.911,121.077 128.102,120.91 128.394,120.748L130.88,117.598C131.157,117.257 131.36,117.021 131.49,116.89C132.026,116.223 132.457,115.425 132.782,114.498C132.847,114.4 132.944,114.302 133.074,114.205C133.482,113.407 133.857,112.504 134.2,111.495L134.444,111.104C134.461,111.055 134.6,110.791 134.861,110.311C135.122,109.831 135.313,109.525 135.436,109.395C135.558,109.265 135.677,108.964 135.791,108.492L136.328,107.418C136.475,107.092 136.694,106.571 136.987,105.855C137.394,105.709 137.598,105.619 137.598,105.587C137.598,105.521 137.573,105.448 137.524,105.367C137.476,105.285 137.435,105.212 137.402,105.147C137.468,104.919 137.598,104.732 137.793,104.586L137.891,104.488C137.891,104.423 137.956,104.293 138.086,104.097L138.135,103.951C138.428,103.3 138.806,102.755 139.27,102.315C139.734,101.876 140.177,101.656 140.601,101.656C140.991,101.656 141.211,101.802 141.26,102.095C141.309,102.388 141.386,102.628 141.492,102.816C141.598,103.003 141.65,103.194 141.65,103.389L141.65,104L141.504,106.099C141.504,106.132 141.52,106.197 141.553,106.295C141.406,106.425 141.317,106.596 141.284,106.807L140.283,109.493C140.202,109.509 140.031,109.761 139.771,110.25L139.404,110.958C139.014,111.706 138.713,112.138 138.501,112.252L138.355,112.447C138.176,112.707 138.021,112.838 137.891,112.838C137.891,113.244 137.748,113.582 137.463,113.851C137.179,114.119 136.963,114.42 136.816,114.754C136.67,115.088 136.393,115.352 135.986,115.548C135.856,115.808 135.693,116.093 135.498,116.402L134.399,117.891C134.107,118.298 133.883,118.791 133.728,119.368C133.573,119.946 133.415,120.357 133.252,120.601L133.154,120.845C132.78,121.073 132.593,121.212 132.593,121.26C132.593,121.342 132.56,121.602 132.495,122.042C132.365,122.383 132.284,122.571 132.251,122.603L132.3,123.14L131.982,123.189C131.95,123.222 131.901,123.36 131.836,123.604L131.836,124.092L131.885,124.141C131.95,124.141 132.023,124.027 132.105,123.799C132.332,123.637 132.625,123.466 132.983,123.287L133.154,123.189C133.285,122.798 133.415,122.554 133.545,122.457L134.033,121.798L134.741,121.187C135.409,120.536 135.742,120.186 135.742,120.137C135.742,120.105 135.759,120.072 135.791,120.04L136.133,120.089L136.304,119.991L136.231,119.551C136.247,119.535 136.369,119.437 136.597,119.258L137.354,118.502L137.745,118.209C137.875,118.095 138.042,117.948 138.245,117.769C138.449,117.59 138.616,117.501 138.746,117.501L139.039,117.598C139.234,117.11 139.666,116.719 140.333,116.426C141.001,116.133 141.392,115.987 141.506,115.987L142.897,116.304C143.028,116.435 143.309,116.626 143.74,116.878C144.171,117.13 144.387,117.753 144.387,118.746C144.387,118.843 144.289,119.096 144.094,119.503L144.143,119.942C144.143,120.04 144.012,120.211 143.752,120.455L143.605,120.943L142.189,122.237C142.026,122.351 141.86,122.432 141.689,122.481C141.518,122.53 141.343,122.628 141.164,122.774C140.984,122.921 140.585,123.144 139.967,123.445C139.348,123.747 139.039,123.995 139.039,124.19C139.039,124.255 139.149,124.438 139.369,124.739C139.588,125.041 139.747,125.297 139.845,125.508C139.943,125.72 140.126,125.964 140.394,126.241C140.663,126.518 140.895,126.672 141.09,126.705C141.286,126.737 141.489,126.786 141.701,126.851C141.717,126.819 141.864,126.75 142.14,126.644C142.417,126.538 142.62,126.42 142.751,126.29L143.093,126.192C143.321,126.16 143.479,126.062 143.569,125.899C143.658,125.736 143.89,125.545 144.265,125.325C144.639,125.106 144.936,124.853 145.156,124.569C145.376,124.284 145.575,124.141 145.754,124.141L146.048,124.141C146.276,124.141 146.406,123.979 146.438,123.653C146.878,123.458 147.195,123.25 147.391,123.03C147.586,122.811 147.806,122.636 148.05,122.506L148.196,122.408C148.636,121.936 149.002,121.7 149.295,121.7C149.458,121.7 149.572,121.781 149.637,121.944C149.507,122.481 149.442,122.855 149.442,123.067C149.442,123.214 149.348,123.507 149.161,123.946C148.974,124.385 148.872,124.605 148.856,124.605L148.587,124.507L148.539,124.507C148.441,124.507 148.343,124.564 148.246,124.678C148.148,124.792 148.05,124.866 147.953,124.898C147.855,124.931 147.753,125.028 147.648,125.191C147.542,125.354 147.375,125.48 147.147,125.569C146.919,125.659 146.736,125.785 146.598,125.948C146.459,126.111 146.358,126.216 146.293,126.265C146.227,126.314 146.162,126.375 146.097,126.448C146.032,126.522 145.959,126.583 145.878,126.632C145.796,126.68 145.694,126.778 145.572,126.924C145.45,127.071 145.292,127.193 145.096,127.291C144.901,127.388 144.75,127.539 144.645,127.742C144.539,127.946 144.4,128.088 144.23,128.17C144.059,128.251 143.819,128.389 143.509,128.585L142.85,129.048C142.687,129.146 142.59,129.195 142.557,129.195L142.484,129.195L142.24,129.146C142.175,129.146 142.142,129.195 142.142,129.293C141.947,129.569 141.768,129.708 141.605,129.708C141.426,129.708 141.202,129.765 140.934,129.879C140.665,129.993 140.466,130.049 140.336,130.049C140.108,130.049 139.676,129.968 139.042,129.805C138.911,129.659 138.765,129.553 138.602,129.488C138.439,129.423 138.236,129.122 137.992,128.585L137.65,128.292C137.373,128.096 136.926,127.266 136.307,125.801L136.087,125.508C135.567,125.395 135.306,125.142 135.306,124.752C135.306,124.67 135.404,124.434 135.599,124.044L135.843,123.897C135.941,123.702 136.059,123.588 136.197,123.555C136.336,123.523 136.454,123.405 136.551,123.201C136.649,122.998 136.795,122.896 136.991,122.896L137.088,122.896C137.316,122.668 137.54,122.493 137.76,122.371C137.98,122.249 138.159,122.123 138.297,121.993C138.435,121.863 138.793,121.7 139.371,121.505C139.949,121.309 140.238,120.691 140.238,119.649C140.238,119.551 140.156,119.486 139.994,119.454C139.522,119.617 139.172,119.828 138.944,120.089C138.618,120.121 138.366,120.288 138.187,120.589C138.008,120.89 137.845,121.041 137.699,121.041L137.235,120.992C137.137,120.992 137.04,121.126 136.942,121.395C136.844,121.663 136.714,121.798 136.551,121.798L136.356,121.798L136.039,121.944L135.941,122.335C135.567,122.742 135.266,122.945 135.038,122.945L134.842,123.507C134.582,123.604 134.281,123.848 133.939,124.239L133.793,124.337C133.662,124.483 133.565,124.605 133.5,124.703C133.434,124.8 133.337,124.849 133.207,124.849C132.995,124.979 132.808,125.248 132.645,125.655C132.45,125.655 132.32,125.805 132.254,126.107C132.189,126.408 132.051,126.558 131.839,126.558L131.644,126.558C131.481,126.933 131.343,127.165 131.229,127.254C131.115,127.344 130.985,127.478 130.838,127.657C130.692,127.836 130.578,128.015 130.497,128.194C130.415,128.373 130.253,128.56 130.008,128.756C129.764,128.951 129.577,129.114 129.447,129.244L129.056,129.488C128.845,129.634 128.706,129.74 128.641,129.805C128.576,129.87 128.495,129.903 128.397,129.903C128.234,129.903 128.002,129.777 127.701,129.525C127.4,129.272 127.25,129.081 127.25,128.951C127.25,128.007 127.331,127.34 127.494,126.949L128.153,125.24C128.348,124.719 128.58,124.263 128.849,123.873C129.117,123.482 129.252,123.205 129.252,123.043C129.252,122.815 129.17,122.701 129.007,122.701C128.438,123.271 128.063,123.604 127.884,123.702C126.957,123.588 126.493,123.401 126.493,123.14Z" style="fill:rgb(51,51,51);fill-rule:nonzero;"/>
        <path d="M167.254,124.385L167.254,124.654L167.303,124.849L167.303,124.947C167.303,124.979 167.27,125.167 167.205,125.508C166.961,125.769 166.823,126.135 166.79,126.607L166.497,127.047C166.497,127.274 166.42,127.453 166.265,127.584C166.111,127.714 165.976,127.974 165.862,128.365C165.748,128.756 165.61,129.171 165.447,129.61L164.886,131.002C164.886,131.067 164.918,131.099 164.983,131.099C165.016,131.099 165.069,131.083 165.142,131.05C165.215,131.018 165.285,131.002 165.35,131.002C165.415,131.002 165.48,131.018 165.545,131.05C165.61,131.083 165.659,131.099 165.692,131.099C165.725,131.099 165.843,131.042 166.047,130.928C166.251,130.814 166.483,130.741 166.744,130.709L167.65,130.489C167.845,130.424 168.245,130.391 168.848,130.391L169.607,130.342C170.211,130.342 170.818,130.497 171.43,130.806C172.042,131.116 172.425,131.441 172.58,131.783C172.735,132.125 172.813,132.678 172.813,133.443C172.813,134.045 172.609,134.346 172.202,134.346C171.957,134.346 171.644,134.192 171.261,133.882C170.878,133.573 170.613,133.183 170.466,132.711C170.319,132.239 170.083,132.003 169.757,132.003L169.146,131.807L168.804,131.905L168.706,131.905C168.641,131.905 168.494,131.856 168.266,131.758L168.193,131.758L167.46,131.954L166.457,131.954L165.993,132.198C165.765,132.263 165.516,132.312 165.247,132.344C164.979,132.377 164.738,132.442 164.526,132.54C164.315,132.637 164.209,132.727 164.209,132.808C164.209,133.313 163.989,133.744 163.549,134.102C163.386,134.363 163.296,134.57 163.28,134.725C163.264,134.879 163.17,135.05 162.999,135.237C162.827,135.425 162.644,135.714 162.449,136.104L162.253,136.446C162.188,136.544 162.155,136.625 162.155,136.69C162.155,136.723 162.172,136.788 162.204,136.885L162.204,137.105C162.204,137.561 161.935,137.992 161.398,138.399L161.398,138.643C161.398,138.773 161.267,138.961 161.007,139.205L161.104,139.693C161.104,139.758 161.015,139.892 160.836,140.096C160.656,140.299 160.506,140.527 160.383,140.779C160.261,141.032 160.029,141.256 159.687,141.451L159.687,141.597L159.834,141.89C159.883,141.89 159.907,141.923 159.907,141.988C159.907,142.102 159.785,142.273 159.541,142.501C159.476,142.761 159.361,143.013 159.198,143.257L158.197,144.6C158.034,144.828 157.952,145.007 157.952,145.137L157.781,145.601C157.602,145.748 157.476,145.898 157.402,146.053C157.329,146.208 157.113,146.513 156.755,146.968C156.396,147.424 156.16,147.652 156.046,147.652C156.144,147.847 156.193,147.961 156.193,147.994C156.193,148.189 156.063,148.425 155.802,148.702C155.379,148.702 155.167,148.791 155.167,148.97L155.289,149.459C155.289,149.524 155.199,149.621 155.02,149.752C154.841,149.882 154.694,149.947 154.58,149.947L154.238,149.947L154.336,150.386C154.271,150.565 154.173,150.687 154.043,150.753C153.912,150.818 153.697,151.009 153.395,151.326C153.094,151.644 152.878,151.835 152.748,151.9L152.43,152.095L151.477,152.193C151.216,152.112 150.716,151.843 149.975,151.387C149.234,150.932 148.811,150.504 148.705,150.106C148.6,149.707 148.547,149.141 148.547,148.409C148.547,148.327 148.628,148.189 148.791,147.994L148.84,147.798L148.84,147.335C148.84,147.302 148.921,147.013 149.084,146.468C149.247,145.923 149.385,145.622 149.499,145.565C149.613,145.508 149.792,145.186 150.036,144.6C150.28,144.014 150.467,143.632 150.597,143.453L152.846,140.157C152.846,139.945 152.879,139.807 152.944,139.742L153.091,139.742C153.221,139.742 153.311,139.697 153.359,139.608C153.408,139.518 153.482,139.416 153.579,139.302C153.579,138.993 153.722,138.741 154.007,138.546C154.292,138.35 154.496,138.135 154.618,137.899C154.741,137.663 154.883,137.447 155.046,137.252L155.095,137.105C155.16,137.04 155.303,136.963 155.523,136.873C155.743,136.784 155.869,136.658 155.902,136.495L156.733,135.689C156.814,135.624 156.945,135.543 157.124,135.445C157.303,135.347 157.49,135.168 157.686,134.908L157.857,134.835L158.004,134.835L158.102,134.786C158.297,134.363 158.497,134.135 158.701,134.102C158.904,134.07 159.039,134.021 159.104,133.956C159.088,133.451 159.373,133.199 159.959,133.199C160.09,133.199 160.187,133.166 160.252,133.101L160.839,132.637C160.921,132.572 161.076,132.255 161.304,131.685L161.304,131.636L161.744,131.758L161.792,131.636L161.695,131.099C161.744,131.034 161.841,130.81 161.988,130.428C162.134,130.045 162.273,129.822 162.403,129.757C162.533,129.691 162.598,129.618 162.598,129.537L162.598,129.244L162.549,128.951L162.647,128.756L162.647,128.438L162.696,128.34C162.777,128.259 162.875,127.958 162.989,127.437C163.054,127.372 163.143,127.307 163.257,127.242L164.356,124.141C164.388,124.06 164.437,123.848 164.502,123.507L164.698,123.238C164.893,122.717 164.991,122.383 164.991,122.237C164.991,122.172 164.958,122.139 164.893,122.139C164.828,122.139 164.681,122.233 164.454,122.42C164.226,122.607 164.055,122.701 163.941,122.701L163.55,122.603L163.453,122.603C163.355,122.603 163.221,122.685 163.05,122.847C162.879,123.01 162.777,123.091 162.745,123.091L162.452,123.14C162.289,123.417 162.142,123.572 162.012,123.604L161.401,123.995L161.352,123.995L161.01,123.751C161.01,123.718 160.969,123.702 160.888,123.702C160.822,123.702 160.725,123.897 160.594,124.288L159.836,124.654C159.673,124.621 159.575,124.605 159.543,124.605C159.379,124.605 159.224,124.756 159.078,125.057C158.931,125.358 158.735,125.525 158.49,125.557C158.36,125.704 158.058,125.818 157.586,125.899L156.142,126.9C155.979,126.965 155.865,127.047 155.8,127.144C155.458,127.177 155.14,127.364 154.846,127.706L154.186,127.657C154.023,127.657 153.864,127.763 153.709,127.974C153.554,128.186 153.395,128.292 153.232,128.292L153.085,128.292L152.792,128.243L151.984,128.438C151.756,128.438 151.406,128.263 150.933,127.913C150.46,127.563 150.224,127.258 150.224,126.998L150.077,125.899C150.077,125.867 150.142,125.753 150.272,125.557C150.403,125.362 150.468,125.224 150.468,125.142C150.468,125.11 150.451,125.045 150.419,124.947L150.419,124.752C150.419,124.182 150.622,123.498 151.029,122.701L151.029,122.603C151.029,122.538 150.98,122.506 150.883,122.506C150.671,122.506 150.493,122.68 150.347,123.03C150.202,123.38 150.032,123.629 149.839,123.775C149.645,123.922 149.504,124.044 149.416,124.141C149.327,124.239 149.251,124.288 149.186,124.288C149.09,124.223 148.977,124.174 148.848,124.141C148.816,124.109 148.759,124.011 148.679,123.848C148.598,123.686 148.473,123.551 148.304,123.445C148.135,123.34 148.05,123.157 148.05,122.896C148.05,122.717 148.285,122.481 148.756,122.188L149.048,121.895C149.793,121.146 150.296,120.748 150.555,120.699L150.701,120.357C150.928,120.178 151.208,119.93 151.54,119.612C151.873,119.295 152.169,119.071 152.428,118.941L153.744,117.794C154.134,117.436 154.672,117.257 155.355,117.257C155.876,117.257 156.136,117.59 156.136,118.257C156.136,118.925 156.018,119.442 155.782,119.808C155.546,120.174 155.4,120.508 155.343,120.809C155.286,121.11 155.07,121.509 154.696,122.005C154.322,122.501 154.094,122.868 154.012,123.104C153.931,123.34 153.764,123.665 153.512,124.08C153.26,124.495 153.133,124.866 153.133,125.191C153.133,125.354 153.231,125.435 153.427,125.435C153.704,125.435 154.054,125.289 154.477,124.996L154.697,124.898C154.86,124.833 155.023,124.752 155.186,124.654L155.797,124.385C155.911,124.141 156.09,123.979 156.334,123.897L156.798,123.653C157.026,123.555 157.307,123.429 157.641,123.275C157.975,123.12 158.191,122.969 158.289,122.823C158.386,122.676 158.513,122.558 158.667,122.469C158.822,122.379 158.997,122.237 159.193,122.042C159.616,122.042 160.202,121.675 160.952,120.943C161.701,120.504 162.401,120.068 163.053,119.637C163.704,119.206 164.136,118.892 164.348,118.697C164.446,118.632 164.621,118.542 164.873,118.428C165.126,118.314 165.411,118.131 165.728,117.879C166.045,117.627 166.448,117.501 166.937,117.501C167.36,117.501 167.767,117.659 168.157,117.977C168.548,118.294 168.743,118.607 168.743,118.917L168.694,120.089C168.694,120.837 168.491,121.472 168.084,121.993C167.986,122.644 167.872,123.091 167.742,123.336L167.791,123.897C167.791,123.995 167.612,124.158 167.254,124.385ZM155.69,143.087L155.812,142.745C155.844,142.631 155.958,142.517 156.154,142.403C156.316,141.703 156.536,141.247 156.812,141.036C156.812,140.678 156.829,140.474 156.861,140.425L157.203,140.108L158.154,138.497C158.252,138.269 158.358,138.053 158.472,137.85C158.585,137.646 158.675,137.447 158.74,137.252C158.74,137.024 159.008,136.576 159.546,135.909L159.546,135.738C159.546,135.51 159.497,135.396 159.399,135.396C159.301,135.51 159.139,135.624 158.911,135.738L157.349,137.056C157.268,137.121 157.048,137.382 156.69,137.838L156.227,138.326C155.966,138.603 155.767,138.778 155.629,138.851C155.491,138.924 155.32,139.16 155.117,139.559C154.913,139.958 154.738,140.157 154.592,140.157L154.494,140.157C154.478,140.157 154.397,140.116 154.25,140.035C154.153,140.084 154.104,140.157 154.104,140.255L154.25,140.84C154.25,140.906 154.185,141.007 154.055,141.146C153.925,141.284 153.815,141.435 153.726,141.597C153.636,141.76 153.542,141.858 153.445,141.89C153.347,141.923 153.168,142.224 152.908,142.794L152.445,143.038C152.396,143.998 152.095,144.771 151.541,145.357C151.411,145.618 151.305,145.874 151.224,146.126C151.142,146.378 151.069,146.537 151.004,146.602C150.906,147.204 150.736,147.554 150.491,147.652C150.426,147.685 150.394,147.733 150.394,147.798C150.394,147.896 150.467,147.994 150.613,148.091L150.711,148.189C150.5,148.824 150.394,149.296 150.394,149.605C150.394,149.67 150.426,149.703 150.491,149.703L151.224,149.337C151.745,149.092 152.095,148.783 152.274,148.409L152.664,147.652C152.729,147.554 152.843,147.489 153.006,147.457C153.103,147.115 153.262,146.895 153.482,146.798C153.701,146.7 153.811,146.57 153.811,146.407C153.811,146.244 154.116,145.683 154.726,144.722C155.336,143.762 155.657,143.217 155.69,143.087Z" style="fill:rgb(51,51,51);fill-rule:nonzero;"/>
        <path d="M188.169,118.648L188.511,118.038C188.608,117.891 188.735,117.741 188.89,117.586C189.044,117.431 189.211,117.033 189.391,116.39C189.57,115.747 189.769,115.303 189.989,115.059C190.209,114.815 190.531,114.693 190.955,114.693C191.199,114.693 191.521,114.811 191.92,115.047C192.319,115.283 192.71,115.995 193.093,117.183C193.476,118.371 193.667,119.21 193.667,119.698C193.667,119.893 193.724,120.141 193.838,120.443C193.952,120.744 194.026,120.976 194.058,121.138C193.928,121.415 193.863,121.57 193.863,121.602L193.912,122.603L193.619,123.409L193.619,123.995C193.424,124.32 193.326,124.524 193.326,124.605C193.326,124.703 193.358,124.8 193.424,124.898C194.188,124.573 194.651,124.308 194.814,124.105C194.976,123.901 195.135,123.775 195.289,123.726C195.443,123.677 195.699,123.466 196.057,123.091L196.52,122.847C196.682,122.652 196.821,122.477 196.934,122.322C197.048,122.168 197.182,122.058 197.336,121.993C197.491,121.928 197.673,121.814 197.885,121.651C198.096,121.488 198.405,121.301 198.811,121.09L199.055,120.797C199.298,120.52 199.587,120.3 199.92,120.137C200.253,119.975 200.436,119.893 200.468,119.893C200.582,119.893 200.7,120.044 200.822,120.345C200.944,120.646 201.004,120.943 201.004,121.236C201.004,121.513 200.846,121.785 200.529,122.054C200.212,122.322 199.996,122.522 199.882,122.652C199.769,122.782 199.508,122.896 199.102,122.994C199.07,123.01 198.801,123.344 198.297,123.995L197.809,124.288L197.566,124.605C197.533,124.67 197.314,124.735 196.907,124.8C196.891,124.8 196.854,124.882 196.797,125.045C196.74,125.207 196.565,125.321 196.273,125.386C195.688,125.923 195.387,126.225 195.371,126.29L194.858,126.387C194.761,126.697 194.679,126.884 194.614,126.949C194.224,127.047 194.005,127.209 193.956,127.437C193.907,127.47 193.826,127.502 193.712,127.535L193.614,127.608C193.24,127.901 192.875,128.08 192.517,128.145L191.956,128.292L191.761,128.585C191.761,128.666 191.562,128.772 191.163,128.902C190.765,129.032 190.468,129.195 190.273,129.39L189.858,129.708C189.354,129.903 189.037,130.082 188.907,130.245L188.566,130.245C188.338,130.245 187.98,130.412 187.492,130.745C187.005,131.079 186.614,131.246 186.322,131.246C185.379,131.246 184.732,131.128 184.383,130.892C184.033,130.656 183.745,130.363 183.517,130.013C183.29,129.663 183.082,129.382 182.895,129.171C182.708,128.959 182.615,128.788 182.615,128.658C182.615,128.544 182.692,128.43 182.846,128.316C183.001,128.202 183.167,127.97 183.346,127.62C183.525,127.27 183.98,127.047 184.712,126.949C184.745,126.949 184.863,126.9 185.066,126.802C185.269,126.705 185.436,126.656 185.566,126.656C185.728,126.656 185.932,126.802 186.176,127.095C186.176,127.128 186.208,127.144 186.273,127.144L186.664,127.095C186.842,127.226 186.964,127.291 187.029,127.291C187.419,127.291 187.834,127.095 188.273,126.705L188.371,126.656L188.566,126.656C188.615,126.656 188.696,126.518 188.81,126.241L189.224,125.386L190.078,124.288L190.078,124.044C190.078,123.995 190.127,123.848 190.225,123.604L190.225,123.238C190.225,123.091 190.322,122.998 190.517,122.957C190.712,122.916 190.81,122.815 190.81,122.652L190.761,122.457C190.631,122.278 190.566,122.139 190.566,122.042L190.81,121.553L190.761,121.041L190.859,120.845C190.793,120.618 190.761,120.487 190.761,120.455L190.859,119.844C190.859,119.828 190.814,119.673 190.724,119.381C190.634,119.088 190.565,118.941 190.516,118.941C190.419,118.941 190.109,119.193 189.588,119.698C189.066,120.202 188.757,120.561 188.659,120.772C188.561,120.984 188.353,121.175 188.035,121.346C187.718,121.517 187.502,121.708 187.388,121.92C187.273,122.131 187.135,122.253 186.972,122.286L185.334,123.604L183.55,124.923C183.419,125.069 183.338,125.142 183.305,125.142C182.702,125.142 182.401,124.809 182.401,124.141C182.401,123.93 182.523,123.547 182.768,122.994C182.881,122.929 182.967,122.88 183.024,122.847C183.081,122.815 183.11,122.79 183.11,122.774C183.11,122.758 183.093,122.75 183.061,122.75L183.207,122.847L183.256,122.847C183.859,122.44 184.25,122.204 184.429,122.139C184.609,122.074 184.772,121.895 184.918,121.602L185.945,120.87C186.205,120.674 186.605,120.316 187.142,119.796C187.68,119.275 188.022,118.892 188.169,118.648Z" style="fill:rgb(51,51,51);fill-rule:nonzero;"/>
        <path d="M208.109,109.639L207.962,108.687L207.962,108.541C207.962,107.776 208.223,107.353 208.744,107.271C208.858,107.255 209.199,107.149 209.769,106.954C210.062,107.019 210.367,107.275 210.685,107.723C211.002,108.17 211.161,108.565 211.161,108.907C211.161,108.939 211.136,109.013 211.087,109.127C211.039,109.241 211.006,109.456 210.99,109.774C210.974,110.091 210.815,110.368 210.514,110.604C210.213,110.84 209.891,110.958 209.549,110.958C209.322,110.958 209.033,110.799 208.683,110.482C208.333,110.164 208.142,109.883 208.109,109.639ZM197.562,121.846L197.953,121.505L198.1,121.505C198.214,121.505 198.385,121.382 198.613,121.138L198.858,121.041C199.183,120.552 199.468,120.268 199.713,120.186L200.104,119.893C200.169,119.828 200.263,119.771 200.385,119.722C200.507,119.673 200.703,119.515 200.972,119.246C201.24,118.978 201.456,118.843 201.619,118.843C201.782,118.843 201.913,118.86 202.01,118.892C202.108,118.697 202.304,118.506 202.597,118.319C202.89,118.131 203.127,117.908 203.306,117.647L203.624,117.501C203.884,117.37 204.116,117.204 204.32,117C204.524,116.797 204.788,116.695 205.114,116.695C205.587,116.695 206.08,116.935 206.592,117.415C207.105,117.895 207.361,118.355 207.361,118.795L206.946,120.699C206.67,122.099 206.36,122.831 206.019,122.896L205.921,123.409C205.693,123.572 205.579,123.702 205.579,123.799L205.726,124.385C205.726,124.467 205.636,124.589 205.457,124.752C205.424,124.752 205.408,124.8 205.408,124.898L205.408,125.899C205.408,126.078 205.294,126.225 205.066,126.339C205.099,126.371 205.148,126.404 205.213,126.436C205.311,126.339 205.53,126.29 205.872,126.29L206.262,126.339L206.799,125.801C206.912,125.769 207.071,125.692 207.274,125.569C207.477,125.447 207.823,125.289 208.31,125.093L211.504,122.652C211.943,122.213 212.276,121.993 212.504,121.993C212.748,121.993 212.87,122.147 212.87,122.457C212.87,122.815 212.801,123.112 212.662,123.348C212.524,123.584 212.398,123.869 212.284,124.202C212.17,124.536 212.036,124.768 211.881,124.898C211.727,125.028 211.601,125.171 211.503,125.325C211.405,125.48 211.141,125.704 210.709,125.997C210.278,126.29 209.912,126.587 209.611,126.888C209.31,127.189 209.062,127.405 208.867,127.535L207.817,128.292L207.671,128.536C207.638,128.568 207.488,128.638 207.219,128.743C206.95,128.849 206.71,128.983 206.499,129.146L206.06,129.39C205.962,129.455 205.803,129.496 205.584,129.512C205.364,129.529 205.173,129.622 205.01,129.793C204.847,129.964 204.717,130.049 204.619,130.049L204.253,130.001L203.765,130.147C203.488,130.147 203.151,129.98 202.752,129.647C202.353,129.313 202.154,128.959 202.154,128.585L202.154,128.438L202.203,128.096C202.203,128.031 202.154,127.864 202.056,127.596C201.959,127.327 201.91,127.177 201.91,127.144L201.959,126.802L201.91,126.656C201.91,126.216 201.942,125.94 202.007,125.826C202.072,125.712 202.121,125.553 202.154,125.35C202.186,125.146 202.219,124.979 202.252,124.849L202.374,124.239C202.439,124.044 202.52,123.913 202.618,123.848C202.65,123.718 202.715,123.498 202.813,123.189L202.911,122.75L203.155,122.408C203.285,122.278 203.362,122.103 203.387,121.883C203.411,121.663 203.497,121.431 203.643,121.187C203.79,120.943 203.863,120.797 203.863,120.748C203.863,120.552 203.765,120.455 203.57,120.455C203.505,120.455 203.301,120.585 202.96,120.845L202.52,120.699C202.487,120.699 202.398,120.78 202.251,120.943C202.251,121.008 202.178,121.057 202.031,121.09C201.885,121.122 201.747,121.244 201.616,121.456L201.421,121.505L201.103,121.358L201.006,121.358C200.843,121.358 200.745,121.537 200.713,121.895C200.534,122.156 200.297,122.326 200.004,122.408L199.467,122.554C199.288,122.619 199.158,122.766 199.076,122.994C198.995,123.222 198.832,123.429 198.588,123.616C198.344,123.804 198.181,123.897 198.1,123.897C197.644,123.897 197.416,123.645 197.416,123.14L197.611,121.993L197.562,121.846Z" style="fill:rgb(51,51,51);fill-rule:nonzero;"/>
        <path d="M222.717,119.21L223.401,118.892C223.629,118.746 223.849,118.534 224.061,118.257L224.916,117.647C225.404,117.322 225.722,117.159 225.869,117.159L226.26,117.305C226.292,117.305 226.394,117.204 226.565,117C226.736,116.797 226.936,116.695 227.164,116.695C227.457,116.695 227.856,116.915 228.361,117.354C228.866,117.794 229.118,118.184 229.118,118.526L229.021,119.356C229.021,119.486 229.086,119.853 229.216,120.455L229.216,120.65L229.118,121.236L229.216,121.846L228.948,123.043C228.948,123.352 229.053,123.507 229.265,123.507C229.542,123.246 229.778,123.091 229.973,123.043L230.315,122.701C230.445,122.571 230.543,122.506 230.608,122.506C230.673,122.506 230.759,122.428 230.864,122.274C230.97,122.119 231.104,122.009 231.267,121.944C231.43,121.879 231.544,121.765 231.609,121.602C232.521,120.609 233.221,120.04 233.709,119.893C233.774,119.893 233.884,119.812 234.039,119.649C234.193,119.486 234.319,119.389 234.417,119.356L234.955,118.941L235.174,119.039L235.223,119.039C235.256,119.039 235.386,118.957 235.614,118.795C235.842,118.632 236.004,118.55 236.102,118.55C236.72,118.55 237.229,118.758 237.628,119.173C238.027,119.588 238.226,119.91 238.226,120.137L238.104,120.699L238.275,121.456L238.275,121.944L238.153,122.457C238.153,122.554 238.222,122.693 238.361,122.872C238.499,123.051 238.568,123.173 238.568,123.238C238.373,123.45 238.275,123.588 238.275,123.653L238.324,124.092L238.202,125.435C238.202,125.549 238.308,125.736 238.519,125.997C238.616,125.932 238.754,125.875 238.933,125.826C239.111,125.777 239.249,125.724 239.347,125.667C239.444,125.61 239.493,125.578 239.493,125.569C239.493,125.561 239.485,125.557 239.468,125.557C239.501,125.557 239.598,125.59 239.761,125.655L239.858,125.655C239.988,125.655 240.061,125.529 240.077,125.277C240.094,125.024 240.256,124.817 240.564,124.654L241.149,124.703C241.181,124.67 241.25,124.536 241.356,124.3C241.462,124.064 241.802,123.714 242.379,123.25C242.955,122.786 243.397,122.554 243.706,122.554C243.966,122.554 244.096,122.668 244.096,122.896C244.096,122.961 244.063,123.132 243.998,123.409C244.128,123.637 244.193,123.832 244.193,123.995C244.193,124.304 243.929,124.638 243.4,124.996C242.872,125.354 242.47,125.801 242.193,126.339L242.096,126.436L241.608,126.387C241.576,126.387 241.498,126.514 241.377,126.766C241.255,127.018 241.113,127.16 240.95,127.193C240.787,127.226 240.674,127.274 240.609,127.34L240.096,127.657C239.999,127.722 239.678,128.052 239.133,128.646C238.589,129.24 238.129,129.537 237.756,129.537C237.593,129.537 237.3,129.451 236.878,129.28C236.455,129.11 236.171,128.935 236.024,128.756C235.878,128.576 235.671,128.373 235.403,128.145C235.134,127.917 235,127.486 235,126.851C235,126.819 235.045,126.762 235.134,126.68C235.224,126.599 235.268,126.534 235.268,126.485C234.894,125.997 234.707,125.647 234.707,125.435C234.707,125.338 234.724,125.232 234.756,125.118C234.789,125.004 234.805,124.898 234.805,124.8L234.756,123.946L234.854,123.507L234.805,123.238L234.951,121.993C234.951,121.798 234.837,121.7 234.609,121.7C234.544,121.7 234.455,121.765 234.341,121.895C234.226,122.025 234.084,122.127 233.913,122.2C233.742,122.274 233.558,122.506 233.363,122.896C233.069,123.059 232.87,123.218 232.764,123.372C232.658,123.527 232.572,123.604 232.507,123.604C232.475,123.604 232.41,123.588 232.312,123.555C232.116,123.686 232.018,123.832 232.018,123.995L232.018,124.092L232.067,124.288C232.067,124.434 231.945,124.573 231.701,124.703C231.456,124.833 231.155,125.167 230.797,125.704C230.633,125.704 230.519,125.72 230.454,125.753L230.161,126.339C229.998,126.436 229.843,126.607 229.696,126.851L229.403,126.998C229.289,127.209 229.175,127.388 229.061,127.535L228.914,127.803C228.214,128.633 227.725,129.048 227.448,129.048C227.171,129.048 226.837,128.682 226.446,127.95C226.055,127.217 225.859,126.648 225.859,126.241L225.957,125.338C225.957,125.305 225.892,125.175 225.761,124.947L225.761,124.849C225.761,124.817 225.827,124.63 225.957,124.288L225.957,123.555C225.957,123.523 225.941,123.474 225.908,123.409L225.908,123.287C225.908,123.254 225.973,123.124 226.103,122.896L225.957,122.188L226.054,121.798L226.006,120.943L226.103,120.186C226.103,120.137 226.059,120.052 225.969,119.93C225.88,119.808 225.819,119.747 225.786,119.747C225.672,119.747 225.335,119.934 224.774,120.308C224.213,120.683 223.836,120.976 223.641,121.187C223.445,121.399 223.185,121.651 222.86,121.944C222.519,122.107 222.283,122.522 222.153,123.189C222.153,123.222 222.121,123.238 222.056,123.238C222.056,123.205 222.007,123.173 221.909,123.14L221.812,123.14C221.73,123.14 221.478,123.49 221.056,124.19L220.958,124.288L220.495,124.19C220.105,124.19 219.91,124.605 219.91,125.435C219.91,125.582 219.808,125.679 219.605,125.728C219.402,125.777 219.243,125.915 219.129,126.143C219.016,126.371 218.861,126.607 218.666,126.851C218.29,127.014 218.078,127.136 218.029,127.217C218.029,127.234 217.849,127.478 217.49,127.95C217.13,128.422 216.934,128.699 216.902,128.78C216.869,128.861 216.759,128.955 216.571,129.061C216.383,129.166 216.289,129.26 216.289,129.341L216.362,129.757C216.362,130.017 216.109,130.147 215.603,130.147C214.625,130.147 214.136,129.13 214.136,127.095C214.136,126.868 214.238,126.611 214.441,126.326C214.644,126.041 214.844,125.696 215.039,125.289C215.348,124.979 215.715,124.532 216.138,123.946C216.561,123.36 216.878,122.961 217.09,122.75L217.407,122.237C217.407,122.042 217.448,121.895 217.529,121.798C217.611,121.7 217.651,121.578 217.651,121.431C217.651,121.171 217.586,121.041 217.456,121.041C217.147,121.041 216.903,121.118 216.724,121.273C216.545,121.427 216.345,121.537 216.126,121.602C215.906,121.667 215.763,121.781 215.698,121.944C215.47,122.042 215.231,122.249 214.978,122.567C214.726,122.884 214.56,123.083 214.479,123.165C214.397,123.246 214.32,123.356 214.247,123.494C214.174,123.633 214.08,123.71 213.966,123.726C213.853,123.743 213.747,123.799 213.65,123.897C213.552,123.995 213.398,124.044 213.186,124.044C213.04,124.044 212.906,123.893 212.784,123.592C212.662,123.291 212.601,123.108 212.601,123.043C212.601,121.854 213.391,120.829 214.971,119.966C215.183,119.853 215.35,119.739 215.472,119.625C215.594,119.511 215.72,119.421 215.851,119.356L215.949,119.185C216.079,118.99 216.567,118.713 217.415,118.355L217.757,118.355L219.394,117.94C220.094,117.777 220.445,118.567 220.445,120.308L220.395,120.748L220.493,120.943C220.77,120.683 221.051,120.451 221.336,120.247C221.621,120.044 221.829,119.861 221.959,119.698C222.09,119.535 222.342,119.372 222.717,119.21Z" style="fill:rgb(51,51,51);fill-rule:nonzero;"/>
        <path d="M256.963,127.755L255.814,128.756C255.749,128.69 255.684,128.658 255.619,128.658C255.456,128.658 255.256,128.804 255.02,129.097C254.784,129.39 254.617,129.537 254.519,129.537L254.275,129.488C253.868,129.797 253.575,129.976 253.396,130.025C253.217,130.074 253.001,130.163 252.748,130.294C252.496,130.424 252.268,130.497 252.064,130.513C251.86,130.53 251.693,130.599 251.563,130.721C251.433,130.843 251.115,130.904 250.61,130.904L250.219,130.855C250.008,130.953 249.869,131.002 249.804,131.002C249.674,131.002 249.535,130.932 249.389,130.794C249.242,130.656 249.083,130.578 248.912,130.562C248.741,130.546 248.566,130.432 248.387,130.22C248.208,130.009 248.041,129.862 247.886,129.781C247.732,129.7 247.605,129.586 247.508,129.439L247.166,129.146C246.889,128.951 246.62,128.593 246.36,128.072C246.099,127.551 245.969,127.144 245.969,126.851L245.969,126.754L246.018,126.29L245.969,125.753C246.034,125.687 246.115,125.549 246.213,125.338L246.213,124.556L246.799,122.603C246.831,122.522 246.766,122.416 246.603,122.286C246.441,122.53 246.277,122.676 246.114,122.725C245.95,122.774 245.84,122.888 245.782,123.067C245.725,123.246 245.631,123.336 245.499,123.336L245.204,123.238C245.171,123.271 245.098,123.437 244.983,123.738C244.868,124.04 244.671,124.19 244.392,124.19C244.097,124.19 243.95,124.076 243.95,123.848L243.999,123.409L243.851,122.798C243.851,122.668 243.982,122.412 244.243,122.029C244.503,121.647 244.744,121.427 244.964,121.37C245.184,121.313 245.372,121.159 245.527,120.906C245.681,120.654 246.02,120.349 246.541,119.991C246.835,119.926 247.088,119.714 247.3,119.356C247.528,119.177 247.825,119.031 248.192,118.917C248.559,118.803 248.836,118.636 249.024,118.416C249.211,118.196 249.766,117.855 250.687,117.391C251.608,116.927 252.281,116.695 252.704,116.695C252.835,116.695 253.014,116.658 253.243,116.585C253.471,116.512 253.683,116.447 253.878,116.39C254.074,116.333 254.278,116.243 254.49,116.121C254.702,115.999 254.873,115.938 255.003,115.938L255.713,116.182C256.234,116.329 256.552,116.435 256.667,116.5C256.699,116.532 256.866,116.601 257.168,116.707C257.47,116.813 257.779,116.955 258.097,117.134C258.415,117.313 258.574,117.647 258.574,118.135C258.297,118.542 258.158,118.762 258.158,118.795C258.158,118.86 258.346,118.957 258.721,119.088C258.851,119.332 259.047,119.649 259.308,120.04L259.576,120.894L259.625,122.896L259.576,123.091C259.397,123.254 259.308,123.36 259.308,123.409L259.381,123.897L259.186,124.581C259.137,124.792 259.056,124.931 258.942,124.996C258.827,125.061 258.754,125.142 258.722,125.24L258.575,125.435C258.542,125.484 258.473,125.626 258.367,125.862C258.261,126.098 258.143,126.282 258.013,126.412C257.883,126.542 257.801,126.697 257.769,126.876C257.736,127.055 257.655,127.185 257.524,127.266C257.394,127.348 257.3,127.433 257.243,127.523C257.186,127.612 257.093,127.689 256.963,127.755ZM249.376,128.389L249.474,128.951L249.522,129L249.912,129L250.034,129.048C250.359,129.114 250.602,129.146 250.765,129.146C251.268,129.146 251.67,129.02 251.971,128.768C252.271,128.515 252.511,128.389 252.689,128.389C252.868,128.389 253.018,128.267 253.14,128.023C253.262,127.779 253.339,127.657 253.371,127.657L253.713,127.657L253.81,127.608C253.81,127.234 253.976,126.965 254.309,126.802C254.642,126.64 254.878,126.424 255.016,126.155C255.154,125.887 255.312,125.683 255.491,125.545C255.669,125.407 255.791,125.224 255.856,124.996L256.051,124.703C256.116,124.638 256.149,124.516 256.149,124.337L256.611,123.458C256.709,123.051 256.758,122.733 256.758,122.506C256.758,122.164 256.583,121.895 256.234,121.7C255.885,121.505 255.71,121.122 255.71,120.552C255.71,120.178 255.901,119.832 256.283,119.515C256.665,119.197 256.855,119.006 256.855,118.941C256.855,118.843 256.807,118.795 256.709,118.795C256.66,118.795 256.473,118.86 256.149,118.99C256.035,119.218 255.458,119.519 254.419,119.893C254.078,119.73 253.891,119.649 253.859,119.649C253.761,119.649 253.664,119.747 253.566,119.942C253.469,120.137 253.371,120.276 253.274,120.357L252.957,120.357C252.925,120.357 252.819,120.463 252.641,120.674C252.462,120.886 252.235,120.992 251.959,120.992L251.666,121.285C251.683,121.545 251.52,121.814 251.179,122.09L250.911,122.408C250.749,122.603 250.538,122.831 250.278,123.091L249.839,124.19C249.661,124.613 249.571,124.931 249.571,125.142C249.522,125.24 249.413,125.342 249.242,125.447C249.071,125.553 248.985,125.687 248.985,125.85C248.985,125.883 249.042,125.964 249.156,126.094C249.27,126.225 249.327,126.322 249.327,126.387L249.229,126.705L249.132,127.608L249.376,128.389Z" style="fill:rgb(51,51,51);fill-rule:nonzero;"/>
        <path d="M283.782,125.508L283.88,125.508L284.124,125.606C284.157,125.606 284.19,125.59 284.222,125.557C284.222,125.281 284.353,125.045 284.614,124.849C284.696,124.54 284.879,124.304 285.165,124.141C285.45,123.979 285.903,123.71 286.523,123.336L287.134,122.798L287.428,122.652L287.624,122.408C287.803,122.196 287.974,122.09 288.138,122.09C288.382,122.09 288.504,122.18 288.504,122.359L288.284,122.847L288.382,123.653C288.382,123.946 288.281,124.206 288.077,124.434C287.873,124.662 287.559,124.996 287.136,125.435L285.889,126.754L285.229,127.095C285.066,127.193 284.919,127.307 284.789,127.437L283.835,128.243C283.835,128.471 283.762,128.642 283.616,128.756L283.224,128.756L283.029,128.853C282.915,129.162 282.581,129.464 282.026,129.757L281.684,130.001C281.57,130.098 281.464,130.147 281.366,130.147L280.682,130.049L280.217,130.147C280.087,130.147 279.912,130.082 279.692,129.952C279.472,129.822 279.248,129.72 279.02,129.647C278.791,129.573 278.502,129.272 278.152,128.743C277.801,128.214 277.61,127.868 277.577,127.706C277.577,127.641 277.541,127.531 277.467,127.376C277.394,127.222 277.357,127.128 277.357,127.095C277.357,127.063 277.431,126.9 277.577,126.607L277.577,126.558C277.577,126.509 277.532,126.396 277.443,126.216C277.353,126.037 277.308,125.818 277.308,125.557C277.308,125.411 277.26,125.224 277.162,124.996C277.292,124.866 277.357,124.768 277.357,124.703C277.357,124.638 277.333,124.544 277.284,124.422C277.235,124.3 277.211,124.206 277.211,124.141L277.357,122.945L277.26,122.335L277.308,121.749C277.308,121.407 277.162,121.236 276.87,121.236C276.741,121.236 276.579,121.326 276.384,121.505L276.214,121.553C275.776,121.765 275.468,121.94 275.289,122.078C275.111,122.217 274.924,122.286 274.73,122.286C274.632,122.383 274.446,122.473 274.17,122.554L273.975,122.701C273.911,122.766 273.781,122.864 273.586,122.994C273.586,123.043 273.282,123.315 272.674,123.812C272.066,124.308 271.518,124.776 271.032,125.215C270.545,125.655 270.192,125.895 269.973,125.936C269.754,125.976 269.645,126.184 269.645,126.558C269.645,126.623 269.499,126.754 269.207,126.949C269.175,126.949 269.005,127.128 268.696,127.486C268.437,127.291 268.291,127.193 268.258,127.193C268.046,127.193 267.891,127.462 267.793,127.999C267.695,128.21 267.434,128.34 267.01,128.389C266.977,128.406 266.92,128.528 266.839,128.756L266.741,128.853L266.496,128.853C266.463,128.853 266.349,128.947 266.153,129.134C265.958,129.321 265.786,129.439 265.639,129.488C265.427,129.927 265.248,130.147 265.101,130.147C265.036,130.147 264.942,130.115 264.819,130.049C264.697,129.984 264.546,129.927 264.367,129.879C264.188,129.83 263.989,129.63 263.769,129.28C263.549,128.93 263.439,128.633 263.439,128.389C263.439,126.583 263.789,125.598 264.489,125.435L264.538,125.338L264.538,125.142C264.538,124.931 264.631,124.78 264.819,124.691C265.006,124.601 265.197,124.422 265.392,124.153C265.588,123.885 265.718,123.734 265.783,123.702L266.1,123.702C266.165,123.702 266.198,123.531 266.198,123.189C266.198,123.091 266.239,123.002 266.32,122.921C266.401,122.839 266.45,122.721 266.467,122.567C266.483,122.412 266.601,122.16 266.821,121.81C267.04,121.46 267.15,121.252 267.15,121.187L267.101,121.09C266.694,121.464 266.401,121.667 266.222,121.7C266.043,121.732 265.799,121.968 265.49,122.408L265.099,122.335C264.415,122.839 263.991,123.124 263.828,123.189C263.665,123.254 263.485,123.441 263.289,123.751C263.289,123.848 263.232,123.913 263.118,123.946C263.004,123.979 262.791,124.109 262.481,124.337L262.335,124.337C261.926,124.337 261.722,124.044 261.722,123.458L262.235,122.066C262.381,121.627 262.726,121.256 263.271,120.955C263.816,120.654 264.275,120.365 264.649,120.089C265.023,119.812 265.397,119.665 265.772,119.649L265.942,119.405C266.495,119.193 266.869,118.86 267.064,118.404C267.259,117.948 267.528,117.72 267.869,117.72C268.764,117.72 269.447,118.05 269.918,118.709C270.39,119.368 270.625,119.893 270.625,120.284L270.674,120.943C270.674,121.171 270.626,121.488 270.528,121.895C270.333,122.188 270.235,122.408 270.235,122.554C270.235,122.685 270.317,122.75 270.479,122.75C270.577,122.75 270.707,122.68 270.869,122.542C271.032,122.404 271.215,122.278 271.418,122.164C271.622,122.05 271.74,121.952 271.772,121.871C271.935,121.48 272.219,121.212 272.626,121.065C273.032,120.919 273.284,120.797 273.382,120.699L273.626,120.504L273.821,120.137C274.26,119.942 274.553,119.763 274.699,119.6C274.845,119.437 275.04,119.332 275.284,119.283C275.528,119.234 275.805,119.088 276.114,118.843L276.48,118.746L276.821,118.55C276.854,118.518 276.951,118.477 277.114,118.428C277.277,118.38 277.516,118.294 277.833,118.172C278.15,118.05 278.366,117.989 278.48,117.989C279.309,117.989 279.964,118.323 280.443,118.99C280.923,119.657 281.163,120.194 281.163,120.601L281.114,121.041L281.212,121.7L281.212,121.798L281.017,123.14L281.065,123.604C281.065,124.369 280.903,124.898 280.577,125.191C280.496,125.224 280.455,125.305 280.455,125.435L280.455,125.655L280.943,126.68C281.09,127.038 281.204,127.217 281.286,127.217L282.069,126.998C282.297,126.933 282.485,126.762 282.632,126.485C282.762,126.42 282.991,126.225 283.317,125.899C283.415,125.639 283.57,125.508 283.782,125.508Z" style="fill:rgb(51,51,51);fill-rule:nonzero;"/>
    </g>
</svg>
