<?xml version="1.0" encoding="UTF-8" standalone="no"?>
<!DOCTYPE svg PUBLIC "-//W3C//DTD SVG 1.1//EN" "http://www.w3.org/Graphics/SVG/1.1/DTD/svg11.dtd">
<svg width="100%" height="100%" viewBox="0 0 900 600" version="1.1" xmlns="http://www.w3.org/2000/svg" xmlns:xlink="http://www.w3.org/1999/xlink" xml:space="preserve" xmlns:serif="http://www.serif.com/" style="fill-rule:evenodd;clip-rule:evenodd;stroke-linecap:round;stroke-linejoin:round;stroke-miterlimit:1.5;">
    <g transform="matrix(0.468197,0,0,0.468197,76.3146,106.763)">
        <path d="M496.954,297.26C514.456,297.26 530.905,302.365 546.3,312.575C561.695,322.784 573.931,336.802 583.006,354.629C592.081,372.455 596.619,392.55 596.619,414.914C596.619,438.898 591.919,460.695 582.52,480.304C573.121,499.913 560.561,515.389 544.842,526.733C529.122,538.077 512.349,543.749 494.523,543.749C466.973,543.749 442.503,534.35 421.111,515.551C418.842,513.282 416.411,512.148 413.819,512.148C411.55,512.148 409.281,513.444 407.012,516.037L383.676,541.804C382.379,543.101 381.245,543.749 380.273,543.749L377.356,543.263C376.059,542.939 375.006,542.453 374.196,541.804C373.385,541.156 372.98,540.184 372.98,538.887L372.494,231.627C372.494,221.58 369.901,215.098 364.715,212.181C359.529,209.263 350.94,207.157 338.948,205.86C337.328,205.86 336.274,205.455 335.788,204.645C335.302,203.835 334.897,202.619 334.573,200.999L334.573,198.568C337.49,195.327 340.407,193.382 343.324,192.734L410.415,178.149L413.332,177.662C415.925,177.662 417.951,178.554 419.409,180.336C420.868,182.119 421.597,184.469 421.597,187.386L421.597,311.846C421.597,316.059 422.326,318.976 423.785,320.597C425.244,322.217 427.107,322.217 429.376,320.597C449.147,305.039 471.673,297.26 496.954,297.26ZM477.993,521.871C490.634,521.871 501.815,517.415 511.539,508.502C521.262,499.589 528.879,486.948 534.389,470.58C539.899,454.213 542.654,435.495 542.654,414.428C542.654,393.036 539.008,375.129 531.715,360.706C524.422,346.283 515.671,335.587 505.462,328.618C495.252,321.65 485.772,318.166 477.021,318.166C468.594,318.166 460.005,320.11 451.254,324C442.503,327.889 434.4,333.237 426.945,340.043C423.38,343.609 421.597,347.822 421.597,352.684L421.597,489.784C421.597,494.97 424.028,499.508 428.89,503.397C436.669,509.231 444.933,513.769 453.685,517.01C462.436,520.251 470.538,521.871 477.993,521.871Z" style="fill:rgb(119,45,18);fill-rule:nonzero;"/>
        <path d="M671.003,535.484C668.734,537.429 666.465,538.401 664.197,538.401C661.28,538.401 659.335,536.294 658.362,532.081L641.833,466.934L641.346,464.503C641.346,462.234 642.643,460.614 645.236,459.641C645.884,459.317 646.856,459.155 648.153,459.155C650.422,459.155 652.204,460.29 653.501,462.559C682.347,506.314 717.027,528.192 757.541,528.192C772.126,528.192 783.47,524.383 791.573,516.767C799.676,509.15 803.728,499.508 803.728,487.839C803.728,480.709 801.54,474.146 797.164,468.149C792.789,462.153 786.55,457.373 778.447,453.807C768.399,449.27 752.031,443.598 729.343,436.791C716.703,433.55 705.683,429.985 696.284,426.096C682.023,419.613 671.003,411.267 663.224,401.058C655.445,390.848 651.556,379.099 651.556,365.811C651.556,356.087 654.149,345.878 659.335,335.182C664.521,324.486 672.867,315.492 684.373,308.199C695.879,300.907 710.221,297.26 727.399,297.26C736.15,297.26 744.091,297.99 751.221,299.448C758.352,300.907 766.292,302.932 775.043,305.525C781.85,307.794 786.225,308.929 788.17,308.929C794.652,308.929 800.811,306.498 806.645,301.636C809.238,299.691 811.344,298.719 812.965,298.719C814.91,298.719 816.53,300.502 817.827,304.067L834.843,361.921C835.167,362.893 835.329,364.028 835.329,365.324C835.329,367.269 834.032,368.89 831.439,370.186C830.791,370.51 829.819,370.672 828.522,370.672C824.309,368.079 821.392,365.648 819.771,363.38C808.103,348.47 793.68,336.154 776.502,326.431C759.324,316.707 742.632,311.846 726.426,311.846C711.841,311.846 701.146,315.654 694.339,323.271C687.533,330.887 684.13,338.747 684.13,346.85C684.13,353.332 686.398,359.004 690.936,363.866C695.474,368.728 702.766,373.589 712.814,378.451C718.324,381.044 731.126,385.581 751.221,392.064C773.261,398.546 789.305,404.218 799.352,409.08C813.613,415.886 824.633,424.556 832.412,435.09C840.19,445.624 844.08,457.859 844.08,471.796C844.08,493.836 836.058,511.338 820.014,524.302C803.971,537.267 782.822,543.749 756.569,543.749C748.142,543.749 739.958,542.939 732.017,541.318C724.077,539.698 714.434,537.267 703.09,534.026C700.821,533.377 697.823,532.567 694.096,531.595C690.369,530.622 687.695,530.136 686.074,530.136C681.213,530.136 676.189,531.919 671.003,535.484Z" style="fill:rgb(119,45,18);fill-rule:nonzero;"/>
        <path d="M1042.44,297.26C1061.56,297.26 1078.82,302.527 1094.21,313.061C1109.61,323.595 1121.68,338.099 1130.43,356.573C1139.19,375.048 1143.56,395.629 1143.56,418.317C1143.56,441.329 1139.19,462.315 1130.43,481.276C1121.68,500.237 1109.61,515.227 1094.21,526.247C1078.82,537.267 1061.72,542.777 1042.92,542.777C1019.91,542.777 999.006,536.132 980.208,522.844C977.615,521.223 975.346,520.413 973.401,520.413C969.836,520.413 968.053,523.168 968.053,528.678L968.053,613.272C968.053,622.347 970.565,628.343 975.589,631.26C980.613,634.177 987.824,635.635 997.224,635.635L1002.57,635.635C1005.16,635.635 1006.46,637.742 1006.46,641.956C1006.46,645.845 1005.16,647.79 1002.57,647.79L884.432,647.79C881.839,647.79 880.543,645.845 880.543,641.956C880.543,637.742 881.839,635.635 884.432,635.635L889.78,635.635C899.179,635.635 906.472,634.177 911.658,631.26C916.843,628.343 919.436,622.347 919.436,613.272L918.464,353.17C918.464,343.123 915.952,336.64 910.928,333.723C905.905,330.806 897.397,328.699 885.404,327.403C882.487,327.403 881.029,324.972 881.029,320.11C881.029,317.842 882.001,316.545 883.946,316.221C886.863,315.249 911.171,309.739 956.871,299.691L959.788,299.205C962.381,299.205 964.407,300.096 965.866,301.879C967.324,303.662 968.053,306.011 968.053,308.929L968.053,311.359C968.053,315.573 968.864,318.49 970.484,320.11C972.105,321.731 974.049,321.731 976.318,320.11C996.413,304.877 1018.45,297.26 1042.44,297.26ZM1024.93,521.871C1034.34,521.871 1043.98,518.468 1053.86,511.662C1063.75,504.855 1072.17,493.511 1079.14,477.63C1086.11,461.748 1089.6,441.167 1089.6,415.886C1089.6,394.819 1086.6,376.911 1080.6,362.164C1074.61,347.417 1066.75,336.397 1057.02,329.105C1047.3,321.812 1036.6,318.166 1024.93,318.166C1016.83,318.166 1008.16,320.11 998.925,324C989.688,327.889 981.18,333.237 973.401,340.043C969.836,343.285 968.053,347.336 968.053,352.198L968.053,487.353C968.053,492.863 970.16,497.239 974.374,500.48C982.152,506.962 990.498,512.148 999.411,516.037C1008.33,519.927 1016.83,521.871 1024.93,521.871Z" style="fill:rgb(119,45,18);fill-rule:nonzero;"/>
        <path d="M1230.59,544.235C1221.84,544.235 1214.46,541.156 1208.46,534.998C1202.47,528.84 1199.47,521.547 1199.47,513.12C1199.47,504.693 1202.47,497.482 1208.46,491.486C1214.46,485.49 1221.84,482.492 1230.59,482.492C1239.01,482.492 1246.31,485.49 1252.46,491.486C1258.62,497.482 1261.7,504.693 1261.7,513.12C1261.7,521.547 1258.62,528.84 1252.46,534.998C1246.31,541.156 1239.01,544.235 1230.59,544.235Z" style="fill:rgb(119,45,18);fill-rule:nonzero;"/>
    </g>
    <g transform="matrix(1.45044,0,0,1.45044,-1.06992,-33.1015)">
        <path d="M268.991,85.984C268.991,64.366 287.809,46.815 310.987,46.815C334.165,46.815 352.983,64.366 352.983,85.984C364.572,67.263 390.277,60.839 410.35,71.648C430.423,82.457 437.311,106.432 425.722,125.154C445.795,114.345 471.5,120.769 483.089,139.49C494.678,158.212 487.79,182.187 467.718,192.996C490.896,192.996 509.713,210.548 509.713,232.166C509.713,253.784 490.896,271.335 467.718,271.335C487.79,282.144 494.678,306.119 483.089,324.841C471.5,343.563 445.795,349.987 425.722,339.178C437.311,357.899 430.423,381.875 410.35,392.684C390.277,403.493 364.572,397.069 352.983,378.347C352.983,399.965 334.165,417.516 310.987,417.516C287.809,417.516 268.991,399.965 268.991,378.347C257.402,397.069 231.697,403.493 211.624,392.684C191.551,381.875 184.664,357.899 196.253,339.178C176.18,349.987 150.474,343.563 138.885,324.841C127.296,306.119 134.184,282.144 154.257,271.335C131.079,271.335 112.261,253.784 112.261,232.166C112.261,210.548 131.079,192.996 154.257,192.996C134.184,182.187 127.296,158.212 138.885,139.49C150.474,120.769 176.18,114.345 196.253,125.154C184.664,106.432 191.551,82.457 211.624,71.648C231.697,60.839 257.402,67.263 268.991,85.984Z" style="fill:none;stroke:black;stroke-opacity:0.11;stroke-width:8.31px;"/>
    </g>
</svg>
