<?xml version="1.0" encoding="UTF-8" standalone="no"?>
<!DOCTYPE svg PUBLIC "-//W3C//DTD SVG 1.1//EN" "http://www.w3.org/Graphics/SVG/1.1/DTD/svg11.dtd">
<svg width="100%" height="100%" viewBox="0 0 900 600" version="1.1" xmlns="http://www.w3.org/2000/svg" xmlns:xlink="http://www.w3.org/1999/xlink" xml:space="preserve" xmlns:serif="http://www.serif.com/" style="fill-rule:evenodd;clip-rule:evenodd;stroke-linecap:round;stroke-linejoin:round;stroke-miterlimit:1.5;">
    <circle cx="422.356" cy="301.088" r="34.929" style="fill:rgb(235,235,235);"/>
    <path d="M278.474,435.503C278.575,435.335 278.677,435.167 278.781,435C253.662,448.526 221.495,440.487 206.993,417.059C192.491,393.631 201.11,363.629 226.228,350.103C197.224,350.103 173.676,328.14 173.676,301.088C173.676,274.036 197.224,252.073 226.228,252.073C201.11,238.547 192.491,208.545 206.993,185.117C221.293,162.015 252.77,153.877 277.728,166.624C278.08,166.804 278.431,166.988 278.781,167.176C264.278,143.749 272.898,113.747 298.016,100.221C323.135,86.695 355.302,94.734 369.804,118.161C369.804,91.109 393.352,69.146 422.356,69.146C451.36,69.146 474.908,91.109 474.908,118.161C489.41,94.734 521.577,86.695 546.696,100.221C571.814,113.747 580.434,143.749 565.931,167.176C566.889,166.661 567.857,166.176 568.834,165.723C593.477,154.286 623.77,162.583 637.719,185.117C652.221,208.545 643.602,238.547 618.484,252.073C647.488,252.073 671.036,274.036 671.036,301.088C671.036,328.14 647.488,350.103 618.484,350.103C643.602,363.629 652.221,393.631 637.719,417.059C623.217,440.487 591.05,448.526 565.931,435C580.434,458.428 571.814,488.43 546.696,501.956C521.577,515.482 489.41,507.443 474.908,484.015C474.908,511.067 451.36,533.03 422.356,533.03C393.352,533.03 369.804,511.067 369.804,484.015C355.302,507.443 323.135,515.482 298.016,501.956C273.077,488.526 264.402,458.855 278.474,435.503ZM422.356,266.159C403.078,266.159 387.427,281.81 387.427,301.088C387.427,320.366 403.078,336.017 422.356,336.017C441.634,336.017 457.285,320.366 457.285,301.088C457.285,281.81 441.634,266.159 422.356,266.159Z" style="fill:rgb(239,222,222);"/>
    <g id="flower" transform="matrix(0.862749,0,0,0.862749,25.1294,42.5278)">
        <g transform="matrix(1.45044,0,0,1.45044,-1.06992,-33.1015)">
            <path d="M268.991,85.984C268.991,64.366 287.809,46.815 310.987,46.815C334.165,46.815 352.983,64.366 352.983,85.984C364.572,67.263 390.277,60.839 410.35,71.648C430.423,82.457 437.311,106.432 425.722,125.154C445.795,114.345 471.5,120.769 483.089,139.49C494.678,158.212 487.79,182.187 467.718,192.996C490.896,192.996 509.713,210.548 509.713,232.166C509.713,253.784 490.896,271.335 467.718,271.335C487.79,282.144 494.678,306.119 483.089,324.841C471.5,343.563 445.795,349.987 425.722,339.178C437.311,357.899 430.423,381.875 410.35,392.684C390.277,403.493 364.572,397.069 352.983,378.347C352.983,399.965 334.165,417.516 310.987,417.516C287.809,417.516 268.991,399.965 268.991,378.347C257.402,397.069 231.697,403.493 211.624,392.684C191.551,381.875 184.664,357.899 196.253,339.178C176.18,349.987 150.474,343.563 138.885,324.841C127.296,306.119 134.184,282.144 154.257,271.335C131.079,271.335 112.261,253.784 112.261,232.166C112.261,210.548 131.079,192.996 154.257,192.996C134.184,182.187 127.296,158.212 138.885,139.49C150.474,120.769 176.18,114.345 196.253,125.154C184.664,106.432 191.551,82.457 211.624,71.648C231.697,60.839 257.402,67.263 268.991,85.984Z" style="fill:none;stroke:rgb(198,170,170);stroke-width:9.63px;"/>
        </g>
        <g transform="matrix(1,0,0,1,0.119427,-1.97108)">
            <circle cx="449.881" cy="305.613" r="40.486" style="fill:none;stroke:rgb(198,170,170);stroke-width:13.97px;"/>
        </g>
        <g transform="matrix(0.999937,-0.0112492,0.0112492,0.999937,-1.97804,4.64351)">
            <path d="M390.764,93.153L432.803,263.156" style="fill:none;stroke:rgb(198,170,170);stroke-width:13.97px;"/>
        </g>
        <g transform="matrix(0.869495,0.493942,-0.493942,0.869495,216.689,-179.914)">
            <path d="M390.764,93.153L432.803,263.156" style="fill:none;stroke:rgb(198,170,170);stroke-width:13.97px;"/>
        </g>
        <g transform="matrix(0.462485,0.890925,-0.926781,0.515778,526.245,-250.22)">
            <path d="M390.764,93.153L432.803,263.156" style="fill:none;stroke:rgb(198,170,170);stroke-width:13.33px;"/>
        </g>
        <g transform="matrix(-0.0574396,1.00265,-1.06769,-0.0264768,796.009,-141.384)">
            <path d="M390.764,93.153L432.803,263.156" style="fill:none;stroke:rgb(198,170,170);stroke-width:13.26px;"/>
        </g>
        <g transform="matrix(-0.532406,0.851561,-0.923567,-0.536528,970.843,78.222)">
            <path d="M390.764,93.153L432.803,263.156" style="fill:none;stroke:rgb(198,170,170);stroke-width:13.26px;"/>
        </g>
        <g transform="matrix(-0.846494,0.534478,-0.551046,-0.855943,996.789,328.341)">
            <path d="M390.764,93.153L432.803,263.156" style="fill:none;stroke:rgb(198,170,170);stroke-width:13.77px;"/>
        </g>
        <g transform="matrix(-1.00102,0.00430729,-0.0127137,-1.01666,904.456,607.65)">
            <path d="M390.764,93.153L432.803,263.156" style="fill:none;stroke:rgb(198,170,170);stroke-width:13.79px;"/>
        </g>
        <g transform="matrix(-0.865289,-0.501557,0.501656,-0.867752,679.833,791.206)">
            <path d="M390.764,93.153L432.803,263.156" style="fill:none;stroke:rgb(198,170,170);stroke-width:13.94px;"/>
        </g>
        <g transform="matrix(-0.479171,-0.880658,0.904593,-0.515906,385.85,851.96)">
            <path d="M390.764,93.153L432.803,263.156" style="fill:none;stroke:rgb(198,170,170);stroke-width:13.53px;"/>
        </g>
        <g transform="matrix(0.0326574,-1.0048,1.08382,-0.0077754,107.993,753.589)">
            <path d="M390.764,93.153L432.803,263.156" style="fill:none;stroke:rgb(198,170,170);stroke-width:13.1px;"/>
        </g>
        <g transform="matrix(0.50446,-0.870465,0.971148,0.506179,-68.5966,537.425)">
            <path d="M390.764,93.153L432.803,263.156" style="fill:none;stroke:rgb(198,170,170);stroke-width:13px;"/>
        </g>
        <g transform="matrix(0.852456,-0.528594,0.57334,0.878013,-104.392,272.327)">
            <path d="M390.764,93.153L432.803,263.156" style="fill:none;stroke:rgb(198,170,170);stroke-width:13.45px;"/>
        </g>
    </g>
    <g transform="matrix(0.629556,0,0,0.629556,-6.74713,74.2022)">
        <path d="M330.455,203.541C354.253,203.541 376.428,210.356 396.981,223.986C417.534,237.616 433.976,256.438 446.308,280.452C458.64,304.467 464.806,331.618 464.806,361.907C464.806,394.792 458.424,424.431 445.659,450.825C432.895,477.22 416.02,497.881 395.034,512.809C374.048,527.736 351.44,535.2 327.209,535.2C305.575,535.2 286.32,531.306 269.445,523.518C252.57,515.729 238.075,505.994 225.959,494.311C222.93,491.282 219.685,489.768 216.224,489.768C213.195,489.768 209.95,491.066 206.488,493.662L160.406,532.604C158.243,534.335 156.512,535.2 155.214,535.2L151.32,534.551C149.589,534.119 148.183,533.47 147.101,532.604C146.019,531.739 145.478,530.441 145.478,528.71L145.478,114.623C145.478,100.777 142.449,91.582 136.392,87.039C130.334,82.495 119.949,79.791 105.238,78.926C103.074,78.926 101.668,78.493 101.019,77.628C100.37,76.762 99.829,75.248 99.396,73.084L99.396,69.19C99.396,66.594 100.695,65.079 103.291,64.647C107.185,63.349 144.18,55.777 214.276,41.93L217.522,41.93C220.983,41.93 223.796,43.012 225.959,45.176C228.123,47.339 229.204,50.368 229.204,54.262L229.204,223.012C229.204,228.637 230.178,232.64 232.125,235.02C234.072,237.399 236.56,237.291 239.589,234.695C267.281,213.926 297.57,203.541 330.455,203.541ZM299.95,507.292C324.613,507.292 343.435,493.121 356.416,464.78C369.397,436.438 375.887,401.715 375.887,360.609C375.887,339.407 372.967,318.854 367.125,298.95C361.284,279.046 352.63,262.82 341.164,250.272C329.697,237.724 316.392,231.45 301.248,231.45C290.863,231.45 279.829,234.262 268.147,239.887C256.464,245.512 245.863,252.868 236.344,261.955C231.584,266.714 229.204,272.339 229.204,278.83L229.204,463.157C229.204,469.647 232.233,475.705 238.291,481.33C248.243,489.119 258.736,495.393 269.769,500.152C280.803,504.912 290.863,507.292 299.95,507.292Z" style="fill:rgb(119,45,18);fill-rule:nonzero;"/>
        <path d="M558.267,524.167C555.239,526.763 552.21,528.061 549.181,528.061C545.287,528.061 542.691,525.248 541.392,519.623L518.027,425.513L517.378,422.268C517.378,418.806 519.109,416.426 522.57,415.128C523.436,414.695 524.734,414.479 526.465,414.479C529.493,414.479 531.873,415.994 533.604,419.022C573.412,482.628 620.143,514.431 673.796,514.431C693.7,514.431 708.304,509.78 717.607,500.477C726.91,491.174 731.561,479.599 731.561,465.753C731.561,456.234 728.532,447.472 722.474,439.467C716.417,431.462 707.763,425.08 696.513,420.32C683.099,414.695 663.628,407.989 638.099,400.2C627.715,397.171 617.438,393.926 607.27,390.465C597.102,387.003 588.989,383.758 582.931,380.729C566.489,372.508 553.291,361.582 543.34,347.953C533.388,334.323 528.412,318.421 528.412,300.248C528.412,282.94 532.847,266.931 541.717,252.219C550.587,237.508 563.135,225.717 579.361,216.847C595.587,207.976 614.085,203.541 634.854,203.541C647.835,203.541 659.518,204.623 669.902,206.786C680.287,208.95 693.268,211.979 708.845,215.873C718.797,218.902 725.071,220.416 727.667,220.416C735.455,220.416 743.027,217.387 750.383,211.33C753.845,207.868 756.874,206.137 759.47,206.137C762.931,206.137 765.311,208.95 766.609,214.575L789.975,297.003L790.624,300.897C790.624,303.493 788.893,305.657 785.431,307.388C783.701,308.253 781.97,308.686 780.239,308.686C777.643,308.686 775.479,307.388 773.749,304.791C754.71,275.801 732.102,254.924 705.924,242.159C679.746,229.395 656.489,223.012 636.152,223.012C617.546,223.012 604.349,227.556 596.561,236.642C588.772,245.729 584.878,255.032 584.878,264.551C584.878,280.128 596.777,293.541 620.575,304.791C631.393,309.551 647.186,315.176 667.955,321.666C700.84,332.051 723.989,340.489 737.402,346.979C756.008,356.066 771.044,367.965 782.511,382.676C793.977,397.388 799.71,414.912 799.71,435.248C799.71,466.835 788.568,491.39 766.285,508.914C744.001,526.438 715.335,535.2 680.287,535.2C667.739,535.2 655.948,534.119 644.914,531.955C633.881,529.792 621.008,526.763 606.296,522.869C592.883,518.974 584.013,517.027 579.686,517.027C572.33,517.027 565.191,519.407 558.267,524.167Z" style="fill:rgb(119,45,18);fill-rule:nonzero;"/>
        <path d="M1073.61,203.541C1098.27,203.541 1120.88,210.464 1141.43,224.31C1161.98,238.157 1178.32,257.303 1190.43,281.75C1202.55,306.198 1208.61,333.565 1208.61,363.854C1208.61,396.739 1202.87,426.162 1191.41,452.123C1179.94,478.085 1163.82,498.422 1143.05,513.133C1122.28,527.845 1098.49,535.2 1071.66,535.2C1040.94,535.2 1013.46,526.547 989.23,509.239C985.768,507.075 982.956,505.994 980.792,505.994C975.6,505.994 973.004,509.888 973.004,517.676L973.004,628.013C973.004,641.427 976.033,650.189 982.09,654.299C988.148,658.41 997.235,660.465 1009.35,660.465L1015.84,660.465C1018.87,660.465 1020.38,662.845 1020.38,667.605C1020.38,672.797 1018.87,675.393 1015.84,675.393L845.143,675.393C842.114,675.393 840.6,672.797 840.6,667.605C840.6,662.845 842.114,660.465 845.143,660.465L851.633,660.465C863.749,660.465 872.943,658.41 879.218,654.299C885.492,650.189 888.629,641.427 888.629,628.013L887.98,279.479C887.98,265.2 885.059,255.897 879.218,251.57C873.376,247.243 863.1,244.647 848.388,243.782C846.225,243.782 844.71,242.7 843.845,240.536C842.979,238.373 842.547,236.21 842.547,234.046C842.547,231.017 843.845,229.286 846.441,228.854L958.076,206.786L961.97,206.137C969.326,206.137 973.004,210.248 973.004,218.469L973.004,223.012C973.004,228.637 974.085,232.532 976.249,234.695C978.412,236.859 981.009,236.859 984.037,234.695C1010.43,213.926 1040.29,203.541 1073.61,203.541ZM1043.75,507.292C1058.03,507.292 1071.01,501.342 1082.69,489.443C1094.37,477.544 1103.46,460.561 1109.95,438.494C1116.44,416.426 1119.69,391.114 1119.69,362.556C1119.69,323.181 1112.98,291.378 1099.57,267.147C1086.15,242.916 1067.98,230.801 1045.05,230.801C1034.66,230.801 1023.74,233.505 1012.27,238.914C1000.8,244.323 990.095,251.57 980.143,260.657C975.384,265.416 973.004,271.041 973.004,277.532L973.004,461.859C973.004,468.349 976.033,474.407 982.09,480.032C992.042,488.253 1002.53,494.852 1013.57,499.828C1024.6,504.804 1034.66,507.292 1043.75,507.292Z" style="fill:rgb(119,45,18);fill-rule:nonzero;"/>
        <path d="M1326.73,535.849C1313.75,535.849 1302.61,531.198 1293.31,521.895C1284,512.592 1279.35,501.234 1279.35,487.821C1279.35,474.84 1284,463.698 1293.31,454.395C1302.61,445.092 1313.75,440.441 1326.73,440.441C1340.14,440.441 1351.5,445.092 1360.81,454.395C1370.11,463.698 1374.76,474.84 1374.76,487.821C1374.76,501.234 1370.11,512.592 1360.81,521.895C1351.5,531.198 1340.14,535.849 1326.73,535.849Z" style="fill:rgb(119,45,18);fill-rule:nonzero;"/>
    </g>
</svg>
