<?xml version="1.0" encoding="UTF-8" standalone="no"?>
<!DOCTYPE svg PUBLIC "-//W3C//DTD SVG 1.1//EN" "http://www.w3.org/Graphics/SVG/1.1/DTD/svg11.dtd">
<svg width="100%" height="100%" viewBox="0 0 900 600" version="1.1" xmlns="http://www.w3.org/2000/svg" xmlns:xlink="http://www.w3.org/1999/xlink" xml:space="preserve" xmlns:serif="http://www.serif.com/" style="fill-rule:evenodd;clip-rule:evenodd;stroke-linecap:round;stroke-linejoin:round;stroke-miterlimit:1.5;">
    <g transform="matrix(0.618235,0,0,0.606863,189.301,115.522)">
        <circle cx="422.356" cy="301.088" r="34.929" style="fill:rgb(235,235,235);"/>
    </g>
    <g transform="matrix(0.618235,0,0,0.606863,189.301,115.522)">
        <path d="M278.474,435.503C278.575,435.335 278.677,435.167 278.781,435C253.662,448.526 221.495,440.487 206.993,417.059C192.491,393.631 201.11,363.629 226.228,350.103C197.224,350.103 173.676,328.14 173.676,301.088C173.676,274.036 197.224,252.073 226.228,252.073C201.11,238.547 192.491,208.545 206.993,185.117C221.293,162.015 252.77,153.877 277.728,166.624C278.08,166.804 278.431,166.988 278.781,167.176C264.278,143.749 272.898,113.747 298.016,100.221C323.135,86.695 355.302,94.734 369.804,118.161C369.804,91.109 393.352,69.146 422.356,69.146C451.36,69.146 474.908,91.109 474.908,118.161C489.41,94.734 521.577,86.695 546.696,100.221C571.814,113.747 580.434,143.749 565.931,167.176C566.889,166.661 567.857,166.176 568.834,165.723C593.477,154.286 623.77,162.583 637.719,185.117C652.221,208.545 643.602,238.547 618.484,252.073C647.488,252.073 671.036,274.036 671.036,301.088C671.036,328.14 647.488,350.103 618.484,350.103C643.602,363.629 652.221,393.631 637.719,417.059C623.217,440.487 591.05,448.526 565.931,435C580.434,458.428 571.814,488.43 546.696,501.956C521.577,515.482 489.41,507.443 474.908,484.015C474.908,511.067 451.36,533.03 422.356,533.03C393.352,533.03 369.804,511.067 369.804,484.015C355.302,507.443 323.135,515.482 298.016,501.956C273.077,488.526 264.402,458.855 278.474,435.503ZM422.356,266.159C403.078,266.159 387.427,281.81 387.427,301.088C387.427,320.366 403.078,336.017 422.356,336.017C441.634,336.017 457.285,320.366 457.285,301.088C457.285,281.81 441.634,266.159 422.356,266.159Z" style="fill:rgb(239,222,222);"/>
    </g>
    <g id="flower" transform="matrix(0.533381,0,0,0.52357,209.562,142.781)">
        <g transform="matrix(1.45044,0,0,1.45044,-1.06992,-33.1015)">
            <path d="M268.991,85.984C268.991,64.366 287.809,46.815 310.987,46.815C334.165,46.815 352.983,64.366 352.983,85.984C364.572,67.263 390.277,60.839 410.35,71.648C430.423,82.457 437.311,106.432 425.722,125.154C445.795,114.345 471.5,120.769 483.089,139.49C494.678,158.212 487.79,182.187 467.718,192.996C490.896,192.996 509.713,210.548 509.713,232.166C509.713,253.784 490.896,271.335 467.718,271.335C487.79,282.144 494.678,306.119 483.089,324.841C471.5,343.563 445.795,349.987 425.722,339.178C437.311,357.899 430.423,381.875 410.35,392.684C390.277,403.493 364.572,397.069 352.983,378.347C352.983,399.965 334.165,417.516 310.987,417.516C287.809,417.516 268.991,399.965 268.991,378.347C257.402,397.069 231.697,403.493 211.624,392.684C191.551,381.875 184.664,357.899 196.253,339.178C176.18,349.987 150.474,343.563 138.885,324.841C127.296,306.119 134.184,282.144 154.257,271.335C131.079,271.335 112.261,253.784 112.261,232.166C112.261,210.548 131.079,192.996 154.257,192.996C134.184,182.187 127.296,158.212 138.885,139.49C150.474,120.769 176.18,114.345 196.253,125.154C184.664,106.432 191.551,82.457 211.624,71.648C231.697,60.839 257.402,67.263 268.991,85.984Z" style="fill:none;stroke:rgb(198,170,170);stroke-width:15.72px;"/>
        </g>
        <g transform="matrix(1,0,0,1,0.119427,-1.97108)">
            <circle cx="449.881" cy="305.613" r="40.486" style="fill:none;stroke:rgb(198,170,170);stroke-width:22.8px;"/>
        </g>
        <g transform="matrix(0.999937,-0.0112492,0.0112492,0.999937,-1.97804,4.64351)">
            <path d="M390.764,93.153L432.803,263.156" style="fill:none;stroke:rgb(198,170,170);stroke-width:22.79px;"/>
        </g>
        <g transform="matrix(0.869495,0.493942,-0.493942,0.869495,216.689,-179.914)">
            <path d="M390.764,93.153L432.803,263.156" style="fill:none;stroke:rgb(198,170,170);stroke-width:22.98px;"/>
        </g>
        <g transform="matrix(0.462485,0.890925,-0.926781,0.515778,526.245,-250.22)">
            <path d="M390.764,93.153L432.803,263.156" style="fill:none;stroke:rgb(198,170,170);stroke-width:21.93px;"/>
        </g>
        <g transform="matrix(-0.0574396,1.00265,-1.06769,-0.0264768,796.009,-141.384)">
            <path d="M390.764,93.153L432.803,263.156" style="fill:none;stroke:rgb(198,170,170);stroke-width:21.62px;"/>
        </g>
        <g transform="matrix(-0.532406,0.851561,-0.923567,-0.536528,970.843,78.222)">
            <path d="M390.764,93.153L432.803,263.156" style="fill:none;stroke:rgb(198,170,170);stroke-width:21.46px;"/>
        </g>
        <g transform="matrix(-0.846494,0.534478,-0.551046,-0.855943,996.789,328.341)">
            <path d="M390.764,93.153L432.803,263.156" style="fill:none;stroke:rgb(198,170,170);stroke-width:22.3px;"/>
        </g>
        <g transform="matrix(-1.00102,0.00430729,-0.0127137,-1.01666,904.456,607.65)">
            <path d="M390.764,93.153L432.803,263.156" style="fill:none;stroke:rgb(198,170,170);stroke-width:22.51px;"/>
        </g>
        <g transform="matrix(-0.865289,-0.501557,0.501656,-0.867752,679.833,791.206)">
            <path d="M390.764,93.153L432.803,263.156" style="fill:none;stroke:rgb(198,170,170);stroke-width:22.94px;"/>
        </g>
        <g transform="matrix(-0.479171,-0.880658,0.904593,-0.515906,385.85,851.96)">
            <path d="M390.764,93.153L432.803,263.156" style="fill:none;stroke:rgb(198,170,170);stroke-width:22.26px;"/>
        </g>
        <g transform="matrix(0.0326574,-1.0048,1.08382,-0.0077754,107.993,753.589)">
            <path d="M390.764,93.153L432.803,263.156" style="fill:none;stroke:rgb(198,170,170);stroke-width:21.37px;"/>
        </g>
        <g transform="matrix(0.50446,-0.870465,0.971148,0.506179,-68.5966,537.425)">
            <path d="M390.764,93.153L432.803,263.156" style="fill:none;stroke:rgb(198,170,170);stroke-width:21.04px;"/>
        </g>
        <g transform="matrix(0.852456,-0.528594,0.57334,0.878013,-104.392,272.327)">
            <path d="M390.764,93.153L432.803,263.156" style="fill:none;stroke:rgb(198,170,170);stroke-width:21.79px;"/>
        </g>
    </g>
    <g transform="matrix(0.488475,0,0,0.505362,21.8901,150.411)">
        <path d="M159.739,233.351C173.56,233.351 185.887,236.652 196.717,243.253C207.548,249.855 216.006,258.983 222.091,270.639C228.177,282.294 231.22,295.549 231.22,310.402C231.22,325.462 228.125,338.871 221.937,350.63C215.748,362.388 207.187,371.569 196.253,378.17C185.319,384.771 172.942,388.072 159.12,388.072C148.805,388.072 139.316,385.751 130.651,381.11C121.987,376.468 114.663,370.021 108.681,361.77L108.681,383.121L87.639,383.121L87.639,158.466L108.681,158.466L108.681,259.963C114.663,251.505 122.038,244.955 130.806,240.313C139.573,235.672 149.218,233.351 159.739,233.351ZM159.739,368.887C169.435,368.887 178.099,366.411 185.732,361.46C193.365,356.509 199.347,349.598 203.679,340.727C208.012,331.857 210.178,321.748 210.178,310.402C210.178,299.262 208.012,289.308 203.679,280.541C199.347,271.773 193.365,264.914 185.732,259.963C178.099,255.012 169.435,252.536 159.739,252.536C149.837,252.536 141.017,255.012 133.281,259.963C125.545,264.914 119.511,271.825 115.179,280.696C110.847,289.566 108.681,299.572 108.681,310.712C108.681,321.851 110.847,331.857 115.179,340.727C119.511,349.598 125.545,356.509 133.281,361.46C141.017,366.411 149.837,368.887 159.739,368.887Z" style="fill:rgb(119,45,18);fill-rule:nonzero;"/>
        <path d="M323.434,233.351C336.43,233.351 348.189,236.549 358.71,242.944C369.231,249.339 377.483,258.055 383.465,269.092C389.448,280.128 392.439,292.454 392.439,306.07C392.439,309.99 392.336,312.981 392.13,315.044L272.995,315.044C273.82,329.897 278.668,342.584 287.538,353.105C296.409,363.626 308.477,368.887 323.743,368.887C336.121,368.887 346.384,366.566 354.533,361.924C362.681,357.283 369.231,350.836 374.182,342.584L390.892,353.724C384.084,364.451 375.11,372.858 363.971,378.944C352.831,385.029 339.628,388.072 324.362,388.072C310.334,388.072 297.853,384.771 286.919,378.17C275.986,371.569 267.425,362.388 261.236,350.63C255.047,338.871 251.952,325.565 251.952,310.712C251.952,295.858 254.995,282.552 261.081,270.794C267.167,259.035 275.625,249.855 286.455,243.253C297.286,236.652 309.612,233.351 323.434,233.351ZM371.397,297.715C369.334,282.655 364.28,271.361 356.234,263.831C348.189,256.301 337.255,252.536 323.434,252.536C310.024,252.536 299.039,256.817 290.478,265.378C281.917,273.94 276.502,284.718 274.232,297.715L371.397,297.715Z" style="fill:rgb(119,45,18);fill-rule:nonzero;"/>
        <path d="M486.2,388.072C472.172,388.072 459.691,384.771 448.758,378.17C437.824,371.569 429.263,362.388 423.074,350.63C416.885,338.871 413.791,325.565 413.791,310.712C413.791,295.858 416.834,282.552 422.919,270.794C429.005,259.035 437.515,249.855 448.448,243.253C459.382,236.652 471.76,233.351 485.581,233.351C497.34,233.351 507.603,235.878 516.371,240.932C525.138,245.987 533.132,253.155 540.353,262.439L524.88,274.507C514.772,259.86 501.672,252.536 485.581,252.536C475.885,252.536 467.169,255.012 459.433,259.963C451.697,264.914 445.663,271.825 441.331,280.696C436.999,289.566 434.833,299.572 434.833,310.712C434.833,321.851 436.999,331.857 441.331,340.727C445.663,349.598 451.697,356.509 459.433,361.46C467.169,366.411 475.885,368.887 485.581,368.887C495.483,368.887 503.632,367.185 510.027,363.781C516.422,360.377 522.199,355.374 527.356,348.773L543.756,360.222C536.949,368.68 528.542,375.437 518.537,380.491C508.532,385.545 497.753,388.072 486.2,388.072Z" style="fill:rgb(119,45,18);fill-rule:nonzero;"/>
        <path d="M660.416,383.121L609.668,308.545L592.029,325.565L592.029,383.121L570.987,383.121L570.987,158.466L592.029,158.466L592.029,298.953L655.465,238.302L682.696,238.302L624.211,294.621L683.934,383.121L660.416,383.121Z" style="fill:rgb(119,45,18);fill-rule:nonzero;"/>
        <path d="M805.544,238.302L825.349,238.302L747.06,445.009L726.018,445.009L748.917,385.906L689.504,238.302L711.474,238.302L759.438,358.366L805.544,238.302Z" style="fill:rgb(119,45,18);fill-rule:nonzero;"/>
        <path d="M964.907,388.072C950.879,388.072 938.553,385.081 927.929,379.098C917.305,373.116 909.208,364.658 903.638,353.724L922.514,344.441C930.146,360.738 945.103,368.887 967.383,368.887C978.11,368.887 986.981,366.927 993.995,363.007C1001.01,359.088 1004.52,353.002 1004.52,344.75C1004.52,336.292 1001.68,330 996.006,325.874C990.333,321.748 980.379,319.066 966.145,317.829C946.341,316.178 932.158,311.743 923.597,304.523C915.035,297.302 910.755,287.71 910.755,275.745C910.755,262.335 915.603,251.918 925.299,244.491C934.994,237.064 948.3,233.351 965.217,233.351C993.892,233.351 1013.39,244.697 1023.7,267.39L1004.83,276.673C1001.32,268.421 996.212,262.335 989.508,258.416C982.803,254.496 974.19,252.536 963.669,252.536C952.942,252.536 944.742,254.496 939.069,258.416C933.396,262.335 930.559,267.905 930.559,275.126C930.559,281.933 933.602,287.452 939.688,291.681C945.773,295.91 956.243,298.643 971.096,299.881C989.456,301.531 1003.12,306.018 1012.1,313.342C1021.07,320.665 1025.56,330.31 1025.56,342.275C1025.56,351.971 1022.77,360.274 1017.2,367.185C1011.63,374.096 1004.21,379.305 994.923,382.812C985.64,386.319 975.634,388.072 964.907,388.072Z" style="fill:rgb(119,45,18);fill-rule:nonzero;"/>
        <path d="M1068.88,383.121L1068.88,238.302L1089.92,238.302L1089.92,383.121L1068.88,383.121ZM1079.4,210.143C1074.66,210.143 1070.68,208.493 1067.49,205.192C1064.29,201.891 1062.69,197.868 1062.69,193.124C1062.69,188.585 1064.29,184.717 1067.49,181.519C1070.68,178.322 1074.66,176.723 1079.4,176.723C1083.94,176.723 1087.86,178.322 1091.16,181.519C1094.46,184.717 1096.11,188.688 1096.11,193.433C1096.11,197.971 1094.46,201.891 1091.16,205.192C1087.86,208.493 1083.94,210.143 1079.4,210.143Z" style="fill:rgb(119,45,18);fill-rule:nonzero;"/>
        <path d="M1294.46,233.351C1307.87,233.351 1319.01,238.044 1327.88,247.431C1336.75,256.817 1341.19,269.762 1341.19,286.266L1341.19,383.121L1320.15,383.121L1320.15,295.549C1320.15,280.283 1317.26,269.298 1311.48,262.593C1305.71,255.889 1298.18,252.536 1288.89,252.536C1277.55,252.536 1268.73,256.92 1262.44,265.688C1256.14,274.455 1252.48,286.369 1251.45,301.428L1251.45,383.121L1230.41,383.121L1230.41,295.549C1230.41,280.283 1227.52,269.298 1221.74,262.593C1215.97,255.889 1208.44,252.536 1199.15,252.536C1186.57,252.536 1177.13,257.797 1170.84,268.318C1164.55,278.839 1161.4,292.97 1161.4,310.712L1161.4,383.121L1140.36,383.121L1140.36,238.302L1161.4,238.302L1161.4,260.891C1166.15,252.021 1172.18,245.213 1179.51,240.468C1186.83,235.723 1195.24,233.351 1204.73,233.351C1215.25,233.351 1224.43,236.188 1232.27,241.861C1240.1,247.534 1245.57,255.631 1248.67,266.152C1253.2,255.837 1259.39,247.792 1267.23,242.015C1275.07,236.239 1284.15,233.351 1294.46,233.351Z" style="fill:rgb(119,45,18);fill-rule:nonzero;"/>
        <path d="M1441.76,388.072C1427.94,388.072 1415.56,384.771 1404.62,378.17C1393.69,371.569 1385.13,362.337 1378.94,350.475C1372.75,338.613 1369.66,325.255 1369.66,310.402C1369.66,295.549 1372.7,282.294 1378.79,270.639C1384.87,258.983 1393.33,249.855 1404.16,243.253C1414.99,236.652 1427.32,233.351 1441.14,233.351C1454.96,233.351 1467.34,236.652 1478.27,243.253C1489.2,249.855 1497.77,259.035 1503.95,270.794C1510.14,282.552 1513.24,295.858 1513.24,310.712C1513.24,325.565 1510.2,338.871 1504.11,350.63C1498.02,362.388 1489.57,371.569 1478.74,378.17C1467.9,384.771 1455.58,388.072 1441.76,388.072ZM1441.14,368.887C1451.04,368.887 1459.86,366.411 1467.6,361.46C1475.33,356.509 1481.37,349.598 1485.7,340.727C1490.03,331.857 1492.2,321.851 1492.2,310.712C1492.2,299.572 1490.03,289.566 1485.7,280.696C1481.37,271.825 1475.33,264.914 1467.6,259.963C1459.86,255.012 1451.04,252.536 1441.14,252.536C1431.44,252.536 1422.78,255.012 1415.14,259.963C1407.51,264.914 1401.53,271.773 1397.2,280.541C1392.87,289.308 1390.7,299.262 1390.7,310.402C1390.7,321.748 1392.87,331.857 1397.2,340.727C1401.53,349.598 1407.51,356.509 1415.14,361.46C1422.78,366.411 1431.44,368.887 1441.14,368.887Z" style="fill:rgb(119,45,18);fill-rule:nonzero;"/>
        <path d="M1611.95,233.351C1622.06,233.351 1631.39,235.414 1639.95,239.54C1648.52,243.666 1655.32,249.751 1660.38,257.797C1665.43,265.842 1667.96,275.332 1667.96,286.266L1667.96,383.121L1646.92,383.121L1646.92,295.549C1646.92,266.874 1634.13,252.536 1608.55,252.536C1593.69,252.536 1582.55,257.797 1575.13,268.318C1567.7,278.839 1563.99,292.97 1563.99,310.712L1563.99,383.121L1542.94,383.121L1542.94,238.302L1563.99,238.302L1563.99,262.439C1568.94,253.155 1575.49,245.987 1583.64,240.932C1591.79,235.878 1601.22,233.351 1611.95,233.351Z" style="fill:rgb(119,45,18);fill-rule:nonzero;"/>
    </g>
</svg>
