<?xml version="1.0" encoding="UTF-8" standalone="no"?>
<!DOCTYPE svg PUBLIC "-//W3C//DTD SVG 1.1//EN" "http://www.w3.org/Graphics/SVG/1.1/DTD/svg11.dtd">
<svg width="100%" height="100%" viewBox="0 0 900 300" version="1.1" xmlns="http://www.w3.org/2000/svg" xmlns:xlink="http://www.w3.org/1999/xlink" xml:space="preserve" xmlns:serif="http://www.serif.com/" style="fill-rule:evenodd;clip-rule:evenodd;stroke-linejoin:round;stroke-miterlimit:2;">
    <g transform="matrix(1.25708,0,0,1.25708,44.4154,38.2255)">
        <path d="M94.538,94.129C94.25,94.705 94.178,95.209 94.322,95.641C94.466,95.929 94.394,96.361 94.106,96.937C93.818,97.513 93.458,98.017 93.026,98.449C92.594,98.881 92.162,99.457 91.73,100.177C91.01,101.329 90.506,102.336 90.218,103.2C89.93,104.064 89.282,104.856 88.274,105.576C86.69,105.864 85.035,106.224 83.307,106.656C81.723,106.944 80.211,107.16 78.771,107.304C77.475,107.304 75.891,107.376 74.019,107.52C72.147,107.664 70.492,107.592 69.052,107.304C67.612,107.16 66.676,107.088 66.244,107.088L64.948,107.088C62.932,107.088 60.628,107.376 58.036,107.952C55.589,108.384 53.285,108.6 51.125,108.6C49.541,108.456 47.957,108.312 46.373,108.168C44.933,108.024 43.205,108.096 41.19,108.384C39.606,108.672 38.598,108.816 38.166,108.816C37.734,108.672 37.302,108.672 36.87,108.816C36.15,108.96 35.43,109.104 34.71,109.248C34.134,109.248 33.558,109.32 32.982,109.464C32.262,109.752 31.398,110.04 30.39,110.328C29.526,110.616 28.662,110.688 27.798,110.544C27.366,110.544 26.934,110.4 26.503,110.112C26.215,109.824 25.783,109.536 25.207,109.248C24.487,108.96 23.767,108.744 23.047,108.6C22.471,108.312 22.039,107.88 21.751,107.304C22.039,106.296 22.255,105.144 22.399,103.848C22.543,102.552 23.191,101.185 24.343,99.745C24.631,99.457 24.991,99.097 25.423,98.665C25.855,98.233 26.287,97.729 26.718,97.153C27.294,96.433 27.654,95.929 27.798,95.641C28.086,95.209 28.59,94.705 29.31,94.129C30.03,93.841 30.678,93.697 31.254,93.697C31.974,93.553 32.694,93.265 33.414,92.833C34.566,93.121 35.718,93.193 36.87,93.049C38.166,92.905 39.102,93.121 39.678,93.697C41.837,93.697 43.853,93.913 45.725,94.345C47.741,94.633 49.901,94.705 52.205,94.561C53.645,94.561 55.013,94.489 56.308,94.345C57.748,94.057 59.332,93.841 61.06,93.697L68.62,93.697C69.772,93.697 70.924,93.625 72.075,93.481C73.371,93.337 74.667,93.265 75.963,93.265C77.259,93.121 78.483,93.193 79.635,93.481C80.787,93.625 81.939,93.697 83.091,93.697C84.243,93.553 85.539,93.409 86.978,93.265C88.562,92.977 90.002,92.833 91.298,92.833C92.018,93.121 92.666,93.337 93.242,93.481C93.818,93.481 94.25,93.697 94.538,94.129Z" style="fill:rgb(51,51,51);fill-rule:nonzero;"/>
        <path d="M111.601,151.365C113.329,150.645 115.057,149.637 116.784,148.341C117.936,146.757 119.16,145.246 120.456,143.806C121.752,142.366 123.12,140.926 124.56,139.486C125.424,138.622 126.216,137.758 126.936,136.894C127.8,136.03 128.736,135.094 129.744,134.086C130.032,133.798 130.319,133.582 130.607,133.438C130.895,133.15 131.183,132.79 131.471,132.358C132.191,131.35 132.839,130.415 133.415,129.551C133.991,128.543 134.711,127.535 135.575,126.527C136.583,125.951 137.519,125.159 138.383,124.151C139.247,123.143 140.111,122.207 140.975,121.343C141.263,121.055 141.551,120.767 141.839,120.479C142.271,120.191 142.631,119.903 142.919,119.615C143.351,119.183 143.639,118.679 143.783,118.103C144.071,117.527 144.359,116.951 144.647,116.376C145.798,114.36 146.95,112.56 148.102,110.976C151.27,109.248 154.51,107.736 157.822,106.44C161.133,105.144 164.301,104.568 167.325,104.712C167.613,105 168.045,105.288 168.621,105.576C169.197,105.864 169.629,106.368 169.917,107.088C170.637,108.24 170.781,109.608 170.349,111.192C169.917,112.776 169.197,113.928 168.189,114.648C167.037,117.959 166.245,121.703 165.813,125.879C165.381,130.055 165.237,134.014 165.381,137.758C165.093,138.19 164.949,138.838 164.949,139.702C165.093,140.422 164.949,140.926 164.517,141.214C165.093,142.366 165.813,143.518 166.677,144.67C167.541,145.822 168.765,146.397 170.349,146.397C172.077,145.966 173.157,145.75 173.589,145.75C174.021,145.75 174.381,145.678 174.668,145.534C175.244,145.246 175.676,144.958 175.964,144.67C176.396,144.238 176.828,143.95 177.26,143.806C177.548,143.23 177.836,142.798 178.124,142.51C178.412,142.222 178.7,141.862 178.988,141.43C180.428,139.702 181.796,137.83 183.092,135.814C184.532,133.798 185.9,131.854 187.196,129.983C188.06,128.543 188.78,127.319 189.355,126.311C190.075,125.303 190.795,123.863 191.515,121.991C191.803,121.271 192.091,120.551 192.379,119.831C192.811,118.967 193.171,118.103 193.459,117.239C193.747,116.376 193.747,115.224 193.459,113.784C193.171,112.2 193.171,111.048 193.459,110.328C194.179,109.32 194.539,108.456 194.539,107.736C195.547,106.152 196.051,105.216 196.051,104.928C196.051,104.64 196.123,104.352 196.267,104.064C196.555,103.776 196.843,103.488 197.131,103.2C197.419,102.768 197.563,102.264 197.563,101.689C199.867,99.385 202.819,97.513 206.418,96.073C209.01,95.641 211.242,95.065 213.114,94.345C215.13,93.481 216.714,93.697 217.866,94.993C217.578,95.425 217.65,95.857 218.082,96.289C218.514,96.577 218.73,96.937 218.73,97.369C218.873,98.089 218.801,98.665 218.514,99.097C218.37,99.529 218.298,99.961 218.298,100.393C217.434,101.976 216.93,102.768 216.786,102.768C216.642,102.768 216.498,102.84 216.354,102.984C216.066,103.56 215.778,104.28 215.49,105.144C215.346,105.864 215.13,106.656 214.842,107.52C214.41,108.672 213.906,109.968 213.33,111.408C212.754,112.704 212.034,114 211.17,115.296C210.45,117.023 210.306,118.175 210.738,118.751C211.314,119.183 211.602,119.759 211.602,120.479C212.034,120.767 212.466,120.983 212.898,121.127C213.474,121.271 213.978,121.487 214.41,121.775C214.842,122.063 215.202,122.423 215.49,122.855C215.922,123.287 216.498,123.647 217.218,123.935C217.65,124.079 218.226,124.151 218.945,124.151C219.809,124.007 220.673,124.007 221.537,124.151C222.689,124.295 223.409,124.295 223.697,124.151C224.129,124.007 224.705,123.647 225.425,123.071C227.009,122.207 227.945,121.559 228.233,121.127C228.665,120.695 229.025,120.335 229.313,120.047C230.033,119.759 230.681,119.615 231.257,119.615C231.977,119.615 232.625,119.471 233.201,119.183C234.784,118.607 236.512,117.887 238.384,117.023C240.4,116.16 242.2,115.296 243.784,114.432C244.504,114.144 245.152,113.856 245.728,113.568C246.448,113.28 246.952,112.776 247.24,112.056C247.816,111.912 248.176,111.84 248.319,111.84C248.607,111.696 249.111,111.624 249.831,111.624C250.119,112.344 250.479,112.992 250.911,113.568C251.343,114.144 251.127,114.864 250.263,115.728C248.679,117.311 246.736,118.751 244.432,120.047C242.272,121.343 240.4,122.855 238.816,124.583C237.088,125.303 235.504,126.167 234.064,127.175C232.625,128.039 230.897,128.759 228.881,129.335C226.721,130.631 225.137,131.638 224.129,132.358C223.121,132.934 222.257,133.294 221.537,133.438C218.945,133.438 216.57,133.51 214.41,133.654C213.69,133.798 213.042,133.726 212.466,133.438C212.034,133.15 211.386,132.862 210.522,132.574C208.506,131.998 207.066,131.278 206.202,130.415C205.338,129.551 204.474,128.759 203.611,128.039C202.603,129.623 201.667,131.35 200.803,133.222C200.083,135.094 199.147,136.678 197.995,137.974C197.563,139.414 196.987,140.638 196.267,141.646C195.547,142.654 194.899,143.95 194.323,145.534C192.883,147.117 191.659,148.917 190.651,150.933C189.643,152.805 188.348,154.461 186.764,155.901C183.452,160.077 179.204,163.604 174.021,166.484C173.013,166.196 172.005,166.34 170.997,166.916C169.989,167.492 169.125,167.564 168.405,167.132C165.381,167.852 163.365,167.636 162.357,166.484C161.493,165.332 160.557,164.54 159.55,164.108C158.254,162.092 157.462,160.293 157.174,158.709C157.03,157.125 156.742,155.541 156.31,153.957C156.022,153.093 155.662,152.373 155.23,151.797C154.942,151.077 154.87,150.357 155.014,149.637C154.582,147.765 154.078,146.253 153.502,145.102C153.07,143.806 152.71,142.366 152.422,140.782C152.278,139.486 152.206,138.19 152.206,136.894C152.35,135.598 152.206,134.23 151.774,132.79C149.182,133.222 147.526,134.158 146.806,135.598C146.23,136.894 145.366,137.902 144.215,138.622C143.639,140.206 142.847,141.43 141.839,142.294C140.831,143.014 139.967,144.166 139.247,145.75C137.663,146.613 136.223,147.765 134.927,149.205C133.775,150.645 132.407,152.013 130.823,153.309C129.384,154.173 128.376,154.893 127.8,155.469C127.368,156.045 126.792,156.477 126.072,156.765C125.64,157.485 125.064,158.205 124.344,158.925C123.624,159.501 122.904,160.149 122.184,160.868C121.464,161.588 120.816,162.308 120.24,163.028C119.664,163.604 119.016,164.18 118.296,164.756C117.72,165.476 117.144,166.052 116.568,166.484C116.136,166.772 115.704,167.06 115.273,167.348C114.841,167.636 114.409,167.996 113.977,168.428C113.545,169.004 113.185,169.364 112.897,169.508C110.881,170.804 109.297,171.74 108.145,172.316C106.993,173.036 105.985,173.18 105.121,172.748C103.969,173.036 102.889,172.82 101.881,172.1C100.873,171.524 99.938,170.948 99.074,170.372C98.354,169.364 97.634,168.428 96.914,167.564C96.194,166.7 95.69,165.692 95.402,164.54C94.538,163.388 93.746,162.092 93.026,160.653C92.306,159.069 91.658,157.485 91.082,155.901C90.938,153.021 90.722,150.861 90.434,149.421C90.146,147.981 90.074,146.541 90.218,145.102C90.362,143.374 90.938,141.862 91.946,140.566C92.81,139.126 93.53,137.686 94.106,136.246C93.962,135.094 94.178,134.23 94.754,133.654C95.33,133.078 95.546,132.358 95.402,131.494C96.698,128.039 98.066,125.447 99.506,123.719C100.945,121.847 102.025,119.687 102.745,117.239C103.465,114.792 104.329,112.704 105.337,110.976C106.489,109.104 107.425,107.016 108.145,104.712C108.721,103.704 109.153,102.624 109.441,101.473C109.873,100.321 110.449,99.169 111.169,98.017C111.601,97.585 111.961,97.153 112.249,96.721C112.681,96.289 113.113,95.929 113.545,95.641C114.697,95.353 115.704,94.849 116.568,94.129C117.432,93.409 118.44,92.905 119.592,92.617C120.6,92.329 121.392,92.185 121.968,92.185C122.688,92.185 123.408,91.969 124.128,91.537C126,90.385 127.224,89.737 127.8,89.593C128.52,89.449 129.24,89.233 129.96,88.945C130.967,89.809 131.759,90.745 132.335,91.753C132.911,92.617 133.055,93.769 132.767,95.209C131.903,96.073 131.399,96.793 131.255,97.369C131.111,97.801 130.895,98.233 130.607,98.665C130.319,99.241 129.888,99.745 129.312,100.177C128.736,100.609 128.304,101.113 128.016,101.689C127.728,102.264 127.44,102.768 127.152,103.2C127.008,103.632 126.792,104.064 126.504,104.496C126.216,104.784 125.856,105.072 125.424,105.36C125.136,105.648 124.848,106.008 124.56,106.44C124.272,106.728 124.056,107.088 123.912,107.52C123.768,107.952 123.552,108.384 123.264,108.816C122.688,109.536 121.968,110.184 121.104,110.76C120.384,111.336 119.88,111.912 119.592,112.488C119.304,113.352 119.016,114.432 118.728,115.728C118.584,116.879 118.368,118.031 118.08,119.183C117.648,120.623 116.856,122.495 115.704,124.799C114.553,126.959 113.689,128.831 113.113,130.415C112.825,131.71 112.537,133.006 112.249,134.302C112.105,135.454 111.889,136.606 111.601,137.758C111.457,138.334 111.241,138.838 110.953,139.27C110.665,139.702 110.449,140.134 110.305,140.566C109.585,142.582 109.153,144.742 109.009,147.045C109.009,149.349 109.873,150.789 111.601,151.365Z" style="fill:rgb(51,51,51);fill-rule:nonzero;"/>
        <path d="M281.149,59.139C281.437,59.571 281.581,60.003 281.581,60.435C281.581,60.867 281.797,61.227 282.229,61.515C281.941,62.811 281.653,64.179 281.365,65.619C281.221,66.915 281.149,68.211 281.149,69.507C281.149,70.083 281.293,70.587 281.581,71.019C282.013,71.451 282.229,71.883 282.229,72.314C281.509,74.042 280.933,75.05 280.501,75.338C280.213,75.626 280.069,75.986 280.069,76.418C279.349,76.706 278.773,77.138 278.341,77.714C278.053,78.29 277.478,78.578 276.614,78.578C276.326,79.01 275.966,79.37 275.534,79.658C275.246,79.802 275.03,80.162 274.886,80.738C272.582,81.746 269.99,81.674 267.11,80.522C266.39,79.226 265.382,78.29 264.086,77.714C262.215,74.978 262.143,71.739 263.87,67.995C264.158,67.275 264.446,66.555 264.734,65.835C265.166,64.971 265.526,64.395 265.814,64.107C267.398,62.955 268.55,62.235 269.27,61.947C269.846,61.659 270.422,61.299 270.998,60.867C271.718,60.435 272.51,60.075 273.374,59.787C273.662,59.643 274.022,59.571 274.454,59.571C275.03,59.571 275.606,59.427 276.182,59.139C276.758,58.995 277.262,58.851 277.694,58.707C278.125,58.563 278.557,58.491 278.989,58.491L281.149,59.139ZM247.672,154.605C248.967,154.029 250.551,153.813 252.423,153.957C254.295,154.101 255.807,153.813 256.959,153.093C257.535,152.661 258.039,152.229 258.471,151.797C258.903,151.365 259.407,151.221 259.983,151.365C262.287,150.501 264.23,149.637 265.814,148.773C267.398,147.909 269.126,147.261 270.998,146.829C271.43,146.685 271.934,146.397 272.51,145.966C273.23,145.534 273.734,145.174 274.022,144.886C276.326,144.166 277.981,143.446 278.989,142.726C279.997,142.006 280.933,141.286 281.797,140.566C282.805,139.846 283.741,139.126 284.605,138.406C285.613,137.542 286.837,136.534 288.277,135.382C290.293,134.23 291.949,133.222 293.244,132.358C294.684,131.494 296.196,130.415 297.78,129.119C298.068,128.399 298.428,127.895 298.86,127.607C299.436,127.175 299.868,126.671 300.156,126.095C302.748,126.095 304.188,127.103 304.476,129.119C303.756,130.703 302.748,131.998 301.452,133.006C300.3,134.014 299.22,135.166 298.212,136.462C297.06,137.182 296.124,137.83 295.404,138.406C294.684,138.982 293.964,139.846 293.244,140.998C293.1,140.998 292.668,141.358 291.949,142.078C291.229,142.654 290.797,142.942 290.653,142.942C289.789,143.95 289.141,144.598 288.709,144.886C288.421,145.174 288.133,145.39 287.845,145.534C287.701,145.534 287.413,145.678 286.981,145.966C286.693,146.253 286.045,146.829 285.037,147.693C284.029,149.277 282.733,150.573 281.149,151.581C278.125,154.461 274.814,156.981 271.214,159.141C267.758,161.156 264.59,163.172 261.711,165.188C261.135,165.476 260.631,165.908 260.199,166.484C259.767,166.916 259.263,167.348 258.687,167.78C257.967,168.356 256.815,168.932 255.231,169.508C253.791,170.084 252.495,170.588 251.343,171.02C250.479,171.596 249.687,172.028 248.967,172.316C245.8,172.46 243.352,171.956 241.624,170.804C239.752,169.796 238.312,169.004 237.304,168.428C236.296,167.852 235.432,166.916 234.712,165.62C233.129,164.9 232.121,163.604 231.689,161.732C231.401,159.717 231.041,157.773 230.609,155.901C230.465,155.181 230.321,154.389 230.177,153.525C230.033,152.517 230.033,151.509 230.177,150.501C230.465,148.917 230.681,147.261 230.825,145.534C230.969,143.662 231.329,142.078 231.905,140.782C232.625,139.198 232.985,137.614 232.985,136.03C233.129,134.446 233.56,132.862 234.28,131.278C235.144,129.839 235.504,129.047 235.36,128.903C235.36,128.759 235.432,128.543 235.576,128.255C235.864,127.823 236.152,127.391 236.44,126.959C236.872,126.527 237.232,126.023 237.52,125.447L238.816,122.207C239.392,121.199 240.04,120.191 240.76,119.183C241.48,118.175 242.056,116.951 242.488,115.512C242.776,114.648 243.136,113.856 243.568,113.136C244.144,112.416 244.72,111.624 245.296,110.76C245.728,109.896 246.088,109.032 246.376,108.168C246.664,107.16 247.024,106.152 247.456,105.144C247.888,103.992 248.391,102.84 248.967,101.689C249.687,100.537 250.407,99.385 251.127,98.233C251.703,97.081 252.207,96.217 252.639,95.641C253.071,95.065 253.935,94.705 255.231,94.561C255.807,94.417 256.455,94.489 257.175,94.777C257.895,94.921 258.615,94.849 259.335,94.561C261.207,93.697 262.503,93.265 263.222,93.265C263.942,93.265 264.446,93.049 264.734,92.617C266.318,92.761 267.47,93.265 268.19,94.129C268.91,94.993 269.774,95.857 270.782,96.721C269.918,100.897 268.91,104.136 267.758,106.44C266.75,108.6 265.598,110.904 264.302,113.352C263.582,114.504 262.863,115.8 262.143,117.239C261.423,118.679 260.775,119.975 260.199,121.127C259.479,122.711 258.687,124.151 257.823,125.447C257.103,126.599 256.455,127.967 255.879,129.551C255.591,130.271 255.231,130.991 254.799,131.71C254.511,132.286 254.223,132.934 253.935,133.654C253.647,134.662 253.215,135.598 252.639,136.462C252.207,137.182 251.775,137.902 251.343,138.622C250.911,139.486 250.479,140.35 250.047,141.214C249.615,142.078 249.255,143.014 248.967,144.022C248.248,145.75 247.816,146.829 247.672,147.261C247.528,147.549 247.384,147.837 247.24,148.125C246.952,149.709 246.52,151.005 245.944,152.013C245.368,153.021 245.584,153.741 246.592,154.173L247.672,154.605Z" style="fill:rgb(51,51,51);fill-rule:nonzero;"/>
        <path d="M306.204,140.134C307.356,139.414 308.291,138.478 309.011,137.326C309.731,136.174 310.595,135.022 311.603,133.87C313.475,131.71 315.491,129.911 317.651,128.471C318.659,127.031 319.883,125.951 321.323,125.231C322.906,124.367 324.13,123.143 324.994,121.559C325.282,121.127 325.498,120.695 325.642,120.263C325.93,119.831 326.218,119.399 326.506,118.967C329.098,115.368 332.05,112.2 335.362,109.464C336.226,108.744 337.017,108.024 337.737,107.304C338.601,106.584 339.609,105.864 340.761,105.144C342.057,104.424 343.281,103.488 344.433,102.336C345.729,101.185 347.097,100.321 348.537,99.745C349.545,99.313 350.481,99.025 351.345,98.881C352.208,98.593 353.144,98.305 354.152,98.017C355.16,97.729 356.024,97.513 356.744,97.369C357.608,97.081 358.544,97.081 359.552,97.369C361.856,98.377 363.584,100.321 364.736,103.2C365.024,103.92 364.88,105.504 364.304,107.952C363.872,110.256 363.224,112.848 362.36,115.728C361.64,118.463 360.848,121.127 359.984,123.719C359.12,126.311 358.544,128.183 358.256,129.335C357.968,130.487 357.896,131.135 358.04,131.278C358.184,131.278 358.256,131.422 358.256,131.71C357.968,132.43 357.752,133.078 357.608,133.654C357.464,134.23 357.32,134.878 357.176,135.598C356.888,136.75 356.672,138.334 356.528,140.35C356.384,142.222 356.456,143.734 356.744,144.886C358.328,144.742 359.12,144.598 359.12,144.454C359.264,144.31 359.48,144.238 359.768,144.238C360.2,144.094 360.632,144.094 361.064,144.238C361.64,144.238 362.144,144.166 362.576,144.022C364.16,143.59 365.6,143.014 366.895,142.294C368.191,141.43 369.415,140.422 370.567,139.27C373.159,138.118 375.535,136.966 377.695,135.814C379.711,134.374 381.294,133.366 382.446,132.79C383.742,132.07 385.614,131.135 388.062,129.983C388.926,128.975 390.15,128.111 391.734,127.391C393.462,126.527 394.902,125.591 396.053,124.583C396.341,124.295 396.701,123.935 397.133,123.503C397.565,122.927 397.997,122.783 398.429,123.071C399.149,123.791 399.581,124.583 399.725,125.447C400.013,126.167 400.085,126.671 399.941,126.959C398.789,128.111 398.141,128.975 397.997,129.551C397.997,130.127 397.853,130.559 397.565,130.847C396.845,131.566 395.766,132.214 394.326,132.79C393.03,133.366 392.238,133.87 391.95,134.302C391.806,134.59 391.59,134.878 391.302,135.166C391.014,135.454 390.582,135.814 390.006,136.246C389.574,136.534 389.214,136.822 388.926,137.11C388.638,137.542 388.206,137.83 387.63,137.974C387.198,137.974 386.766,138.046 386.334,138.19C385.47,138.91 384.75,139.558 384.174,140.134C383.598,140.71 382.95,141.358 382.23,142.078C381.079,143.23 380.359,144.094 380.071,144.67C379.783,145.102 378.991,145.75 377.695,146.613C376.975,147.045 374.095,148.773 373.375,149.205C371.359,150.213 369.343,151.437 367.327,152.877C365.312,154.317 363.296,155.757 361.28,157.197C359.84,158.061 358.328,158.853 356.744,159.573C355.304,160.149 353.936,160.868 352.64,161.732L351.345,161.732C351.201,161.588 350.841,161.66 350.265,161.948C349.545,161.516 348.825,161.516 348.105,161.948C347.385,162.236 346.665,162.236 345.945,161.948C344.505,160.796 343.497,160.077 342.921,159.789C342.489,159.501 342.129,159.141 341.841,158.709C341.553,157.989 341.409,157.197 341.409,156.333C341.553,155.469 341.409,154.749 340.977,154.173C340.977,151.005 341.049,147.981 341.193,145.102C341.481,142.222 341.985,139.198 342.705,136.03C342.849,135.022 343.137,133.654 343.569,131.926C344.001,130.055 344.361,128.255 344.649,126.527C344.937,124.799 345.153,123.287 345.297,121.991C345.441,120.695 345.297,119.903 344.865,119.615C343.281,120.479 341.625,121.775 339.897,123.503C338.313,125.231 336.802,126.671 335.362,127.823C334.21,128.687 333.058,129.479 331.906,130.199C330.898,130.919 329.818,131.71 328.666,132.574C327.658,133.294 326.794,134.014 326.074,134.734C325.354,135.454 324.562,136.318 323.698,137.326C322.69,138.334 321.755,139.342 320.891,140.35C320.027,141.214 319.019,142.078 317.867,142.942C317.291,143.518 316.715,144.022 316.139,144.454C315.707,144.742 315.275,145.102 314.843,145.534C314.123,146.253 313.403,146.973 312.683,147.693C312.107,148.269 311.315,148.773 310.307,149.205C309.443,150.357 308.291,151.653 306.852,153.093C305.556,154.533 304.188,156.117 302.748,157.845C301.452,159.429 300.156,161.012 298.86,162.596C297.564,164.18 296.556,165.62 295.836,166.916C294.108,168.356 292.237,169.58 290.221,170.588C288.349,171.74 286.045,171.884 283.309,171.02C281.869,170.156 280.933,169.436 280.501,168.86C280.069,168.284 279.565,167.852 278.989,167.564C279.133,165.98 279.277,164.468 279.421,163.028C279.565,161.588 279.997,160.077 280.717,158.493C280.861,158.205 281.077,157.917 281.365,157.629C281.509,157.197 281.725,156.765 282.013,156.333C282.733,155.037 283.237,153.597 283.525,152.013C283.669,150.429 284.101,148.917 284.821,147.477C285.685,146.037 286.261,144.886 286.549,144.022C286.693,143.014 286.981,142.15 287.413,141.43C287.701,140.71 288.133,140.062 288.709,139.486C289.141,138.766 289.501,138.046 289.789,137.326C290.077,136.606 290.581,135.814 291.301,134.95C292.021,133.942 292.525,133.078 292.812,132.358C293.244,130.775 293.748,129.191 294.324,127.607C294.9,126.023 295.548,124.439 296.268,122.855C296.556,121.847 296.844,120.911 297.132,120.047C297.42,119.039 297.78,118.103 298.212,117.239C298.932,115.656 299.652,114.144 300.372,112.704C301.092,111.12 301.812,109.536 302.532,107.952C302.964,107.088 303.324,106.368 303.612,105.792C304.044,105.072 304.548,104.352 305.124,103.632C305.556,102.912 305.916,102.192 306.204,101.473C306.636,100.753 307.068,100.033 307.499,99.313C307.931,98.593 308.291,97.801 308.579,96.937C309.011,95.929 309.587,94.993 310.307,94.129C311.315,92.977 312.107,91.897 312.683,90.889C313.259,89.881 314.195,89.233 315.491,88.945C316.067,89.233 316.643,89.233 317.219,88.945C317.939,88.657 318.587,88.441 319.163,88.297C319.883,88.009 320.531,87.865 321.107,87.865C321.683,87.721 322.186,87.937 322.618,88.513C324.49,89.665 325.858,90.673 326.722,91.537C327.586,92.401 328.162,93.193 328.45,93.913C329.17,95.209 329.242,96.577 328.666,98.017C328.09,99.313 327.082,100.465 325.642,101.473C325.066,103.92 324.058,106.224 322.618,108.384C321.179,110.544 319.883,112.632 318.731,114.648C318.443,115.368 317.291,118.247 317.003,118.967C316.139,120.983 315.203,122.999 314.195,125.015C313.331,127.031 312.323,128.975 311.171,130.847C310.595,131.998 310.091,132.934 309.659,133.654C309.227,134.374 308.795,135.022 308.363,135.598C307.931,136.03 307.571,136.606 307.284,137.326C306.996,138.046 306.636,138.982 306.204,140.134Z" style="fill:rgb(51,51,51);fill-rule:nonzero;"/>
        <path d="M449.186,47.476C451.058,47.764 452.642,47.98 453.938,48.124C455.233,48.268 456.385,48.412 457.393,48.556L460.849,48.556C462.001,48.412 463.441,48.196 465.169,47.908C468.337,47.476 471.144,47.116 473.592,46.828C476.184,46.396 478.992,46.036 482.016,45.748C482.88,45.604 483.744,45.604 484.608,45.748C485.615,45.892 486.551,45.964 487.415,45.964C489.287,45.964 491.087,45.892 492.815,45.748C494.687,45.604 496.415,45.46 497.999,45.316C498.575,45.172 499.079,45.028 499.51,44.884C499.942,44.74 500.374,44.74 500.806,44.884L504.694,44.884C505.99,44.74 507.142,45.172 508.15,46.18C508.582,47.62 508.726,48.412 508.582,48.556C508.438,48.7 508.294,48.916 508.15,49.204C508.006,51.076 507.718,52.012 507.286,52.012C506.998,52.012 506.854,52.156 506.854,52.444C505.702,52.732 504.694,53.02 503.83,53.308C503.11,53.452 502.534,53.884 502.102,54.604C499.654,55.18 497.351,55.324 495.191,55.036C493.175,54.604 491.087,54.892 488.927,55.9C487.919,56.332 486.839,56.908 485.687,57.627C484.679,58.203 483.384,58.203 481.8,57.627C480.36,57.627 478.704,57.699 476.832,57.843C474.96,57.987 473.16,58.131 471.432,58.275C468.121,58.563 465.241,58.851 462.793,59.139C460.489,59.283 458.257,59.427 456.097,59.571C453.938,59.571 451.706,59.643 449.402,59.787C447.242,59.931 444.578,60.003 441.41,60.003C440.259,61.011 439.467,62.235 439.035,63.675C438.747,65.115 438.027,66.267 436.875,67.131C435.723,69.867 434.787,71.739 434.067,72.746C433.347,73.61 432.843,74.69 432.555,75.986C430.539,78.578 428.667,81.314 426.939,84.194C425.356,86.93 423.484,89.521 421.324,91.969C421.036,93.553 420.46,94.993 419.596,96.289C418.876,97.441 418.372,99.025 418.084,101.041C416.5,103.2 415.348,105.576 414.628,108.168C413.908,110.76 412.972,113.496 411.82,116.376C411.532,117.527 411.172,118.679 410.741,119.831C410.453,120.839 410.093,121.919 409.661,123.071C409.085,124.511 408.365,125.879 407.501,127.175C406.781,128.327 406.061,129.623 405.341,131.063C405.053,131.35 404.909,131.782 404.909,132.358C404.909,132.79 404.837,133.15 404.693,133.438C404.261,134.446 403.829,135.382 403.397,136.246C402.965,136.966 402.605,137.686 402.317,138.406C402.029,139.126 401.813,139.918 401.669,140.782C401.669,141.502 401.525,142.222 401.237,142.942C401.093,143.374 400.949,143.806 400.805,144.238C400.661,144.526 400.517,144.886 400.373,145.318C399.941,147.333 399.941,148.701 400.373,149.421C400.805,150.141 401.165,150.861 401.453,151.581C401.741,152.445 402.029,153.237 402.317,153.957C402.605,154.533 402.821,155.181 402.965,155.901C403.685,156.189 404.333,156.477 404.909,156.765C405.629,157.053 406.349,157.197 407.069,157.197C407.933,157.341 408.869,156.981 409.877,156.117C410.884,155.109 411.748,154.533 412.468,154.389C413.476,154.101 414.412,153.957 415.276,153.957C416.284,153.957 417.148,153.741 417.868,153.309C418.732,152.589 419.452,151.869 420.028,151.149C420.604,150.429 421.396,149.925 422.404,149.637C424.708,149.061 425.931,148.629 426.075,148.341C426.219,147.909 426.723,147.333 427.587,146.613C428.595,145.894 429.459,145.246 430.179,144.67C431.043,143.95 432.051,143.23 433.203,142.51C434.643,141.79 435.435,141.358 435.579,141.214C435.867,141.07 436.515,140.566 437.523,139.702C438.963,138.982 440.187,138.19 441.194,137.326C442.202,136.462 443.354,135.67 444.65,134.95C446.09,134.374 446.954,134.014 447.242,133.87C447.53,133.582 447.674,133.366 447.674,133.222C447.818,133.078 447.962,132.862 448.106,132.574C448.394,132.286 449.114,131.782 450.266,131.063C450.842,129.911 451.49,128.975 452.21,128.255C452.93,127.535 453.794,126.599 454.802,125.447C455.665,124.439 456.529,123.575 457.393,122.855C458.401,122.135 459.265,121.415 459.985,120.695C460.417,120.407 460.777,120.119 461.065,119.831C461.353,119.399 461.857,119.111 462.577,118.967C463.441,118.247 464.089,117.671 464.521,117.239C465.097,116.663 465.961,115.872 467.113,114.864C467.401,114.576 467.761,114.216 468.193,113.784C468.625,113.352 468.985,113.064 469.273,112.92C469.849,112.92 470.28,113.136 470.568,113.568C471,114 471.504,114.216 472.08,114.216C471.936,116.088 471.864,117.311 471.864,117.887C471.864,118.319 471.72,118.823 471.432,119.399C470.568,120.695 469.561,121.415 468.409,121.559C467.401,121.703 466.609,122.495 466.033,123.935C465.601,123.647 465.025,123.575 464.305,123.719C463.729,123.863 463.297,124.079 463.009,124.367C463.297,124.943 463.441,125.447 463.441,125.879C463.441,126.311 463.513,126.815 463.657,127.391C461.065,129.983 459.337,132.07 458.473,133.654C456.745,135.526 455.809,136.606 455.665,136.894C455.521,137.038 454.586,137.974 453.722,138.838C451.706,140.422 450.194,141.934 449.186,143.374C448.178,144.814 446.666,146.109 444.65,147.261C443.066,148.413 441.986,149.277 441.41,149.853C440.834,150.429 439.971,151.221 438.819,152.229C438.243,152.805 437.667,153.453 437.091,154.173C436.659,154.749 436.083,155.325 435.363,155.901C434.355,156.621 433.347,157.269 432.339,157.845C431.475,158.421 430.683,159.141 429.963,160.005C427.803,161.012 426.219,162.164 425.212,163.46C424.348,164.756 422.98,165.98 421.108,167.132C419.812,167.996 418.012,169.076 415.708,170.372C413.548,171.668 411.676,172.604 410.093,173.18C409.661,173.324 409.229,173.468 408.797,173.612C408.509,173.756 408.149,173.9 407.717,174.044C406.565,173.324 405.413,172.604 404.261,171.884C403.253,171.164 402.389,170.156 401.669,168.86C400.373,167.852 399.293,167.132 398.429,166.7C397.709,166.268 396.989,165.692 396.269,164.972C394.83,162.524 393.174,160.077 391.302,157.629C389.574,155.181 388.206,152.445 387.198,149.421C386.91,148.845 386.694,148.269 386.55,147.693C386.55,146.973 386.478,146.253 386.334,145.534C386.046,144.382 385.758,143.374 385.47,142.51C385.182,141.646 385.11,140.566 385.254,139.27C385.254,138.406 385.398,137.47 385.686,136.462C385.974,135.454 386.262,134.374 386.55,133.222C387.126,131.35 387.774,129.551 388.494,127.823C389.358,126.095 390.006,124.223 390.438,122.207C390.87,120.623 391.302,119.183 391.734,117.887C392.166,116.591 392.67,115.152 393.246,113.568C393.534,112.848 393.678,112.2 393.678,111.624C393.822,110.904 394.254,110.4 394.974,110.112C395.55,107.232 396.485,104.496 397.781,101.904C399.077,99.169 400.373,96.577 401.669,94.129C403.253,91.105 404.693,88.009 405.989,84.842C407.429,81.674 408.941,78.578 410.525,75.554C410.669,73.826 411.244,72.386 412.252,71.235C412.396,69.651 412.972,68.139 413.98,66.699C414.988,65.115 415.708,63.531 416.14,61.947C414.556,61.515 412.756,61.515 410.741,61.947C408.869,62.235 407.213,62.523 405.773,62.811C403.181,62.955 400.445,62.955 397.565,62.811C396.557,62.667 395.55,62.523 394.542,62.379C393.678,62.091 392.814,61.947 391.95,61.947C390.654,62.091 389.646,62.019 388.926,61.731C388.35,61.299 387.702,61.227 386.982,61.515C385.11,59.931 383.742,58.851 382.878,58.275C382.014,57.699 381.223,57.196 380.503,56.764C379.639,56.188 378.919,55.612 378.343,55.036C377.623,54.316 377.047,53.308 376.615,52.012C376.615,51.58 376.831,51.22 377.263,50.932C377.695,50.644 378.055,50.356 378.343,50.068C379.495,49.78 380.791,49.708 382.23,49.852C383.67,49.852 384.822,49.564 385.686,48.988C387.99,49.276 390.078,49.132 391.95,48.556C393.966,47.98 396.053,47.764 398.213,47.908C398.645,47.908 399.077,47.98 399.509,48.124C399.941,48.268 400.373,48.34 400.805,48.34C401.525,48.484 402.101,48.484 402.533,48.34C403.109,48.196 403.757,48.052 404.477,47.908C405.341,47.764 406.277,47.764 407.285,47.908C408.293,48.052 409.301,48.052 410.309,47.908C412.18,47.764 414.412,47.98 417.004,48.556C419.74,48.988 422.116,48.844 424.132,48.124C424.852,46.108 425.643,44.092 426.507,42.077C427.515,39.917 428.307,37.829 428.883,35.813C429.459,34.949 430.035,34.013 430.611,33.005C431.187,31.853 431.619,30.773 431.907,29.765C432.771,28.325 433.419,27.174 433.851,26.31C434.427,25.446 435.075,24.582 435.795,23.718C436.803,21.702 437.523,19.758 437.955,17.886C438.531,15.87 439.251,13.71 440.115,11.407C441.986,9.391 443.858,6.943 445.73,4.063C446.738,4.207 447.53,3.919 448.106,3.199C448.826,2.479 449.834,2.551 451.13,3.415C451.13,3.847 451.274,4.279 451.562,4.711C451.994,4.999 452.066,5.503 451.778,6.223C452.498,6.943 453.074,7.591 453.506,8.167C453.938,8.743 454.298,9.391 454.586,10.111C454.874,11.263 454.73,12.631 454.154,14.214C453.722,15.654 453.866,17.022 454.586,18.318C454.874,19.038 454.946,19.758 454.802,20.478C454.658,21.054 454.73,21.63 455.018,22.206C455.305,22.926 455.665,23.646 456.097,24.366C456.673,25.086 456.961,26.022 456.961,27.174C456.961,27.606 456.817,28.181 456.529,28.901C456.385,29.477 456.169,30.125 455.881,30.845C455.305,33.005 454.874,34.517 454.586,35.381C454.298,36.245 454.01,37.181 453.722,38.189C452.714,39.341 452.21,40.133 452.21,40.565C452.21,40.853 452.138,41.141 451.994,41.429C451.562,42.293 451.058,43.372 450.482,44.668C450.05,45.82 449.618,46.756 449.186,47.476Z" style="fill:rgb(51,51,51);fill-rule:nonzero;"/>
        <path d="M485.471,105.144C484.464,106.44 483.456,107.664 482.448,108.816C481.44,109.968 480.288,111.048 478.992,112.056C478.128,113.64 477.12,115.08 475.968,116.376C474.816,117.671 473.664,118.895 472.512,120.047C471.936,121.199 471.288,122.135 470.568,122.855C469.849,123.431 469.057,124.079 468.193,124.799C467.761,125.519 467.185,126.239 466.465,126.959C465.889,127.679 465.313,128.399 464.737,129.119C464.305,129.839 463.945,130.631 463.657,131.494C463.369,132.358 463.441,133.294 463.873,134.302C465.457,134.59 467.041,134.374 468.625,133.654C470.208,132.934 471.576,132.286 472.728,131.71C473.88,130.991 475.032,130.415 476.184,129.983C477.48,129.407 478.632,128.759 479.64,128.039L485.255,122.423C486.263,121.559 487.127,120.623 487.847,119.615C488.567,118.607 489.359,117.527 490.223,116.376C490.511,114.936 491.087,113.496 491.951,112.056C492.815,110.472 493.175,108.96 493.031,107.52C492.887,106.656 492.599,105.936 492.167,105.36C491.879,104.64 491.663,103.92 491.519,103.2C490.079,103.2 488.927,103.488 488.063,104.064C487.343,104.496 486.479,104.856 485.471,105.144ZM450.698,118.967C450.986,118.823 451.562,118.247 452.426,117.239C453.434,116.088 454.514,114.864 455.665,113.568C456.817,112.128 457.897,110.904 458.905,109.896C459.913,108.744 460.633,108.096 461.065,107.952C461.497,107.232 461.857,106.656 462.145,106.224C462.577,105.648 463.153,105.144 463.873,104.712C465.025,102.552 466.537,100.825 468.409,99.529C470.28,98.089 472.08,96.433 473.808,94.561C476.544,93.409 479.28,91.969 482.016,90.241C484.895,88.369 488.063,87.361 491.519,87.217C493.103,87.937 494.615,88.153 496.055,87.865C497.639,87.577 499.079,87.937 500.374,88.945C501.094,90.241 501.742,91.105 502.318,91.537C502.894,91.825 503.326,92.185 503.614,92.617C504.19,94.489 504.622,95.713 504.91,96.289C505.198,96.721 505.414,97.297 505.558,98.017C505.702,100.177 505.846,101.76 505.99,102.768C506.134,103.632 506.134,104.496 505.99,105.36C505.558,109.248 504.838,112.92 503.83,116.376C503.542,117.239 503.254,118.175 502.966,119.183C502.678,120.047 502.318,120.839 501.886,121.559C500.878,122.855 500.086,124.007 499.51,125.015C499.079,125.879 498.647,126.599 498.215,127.175C496.487,128.903 494.975,130.343 493.679,131.494C492.383,132.214 491.087,133.006 489.791,133.87C488.495,134.734 487.055,135.31 485.471,135.598C484.751,136.03 484.104,136.462 483.528,136.894C482.952,137.182 482.232,137.398 481.368,137.542C479.928,138.55 478.488,139.342 477.048,139.918C475.608,140.35 474.096,140.926 472.512,141.646C471.648,141.934 470.712,142.438 469.705,143.158C468.697,143.878 467.689,144.454 466.681,144.886C465.817,145.174 464.737,145.462 463.441,145.75C462.289,145.894 461.353,146.109 460.633,146.397C461.353,147.981 461.641,149.781 461.497,151.797C461.353,153.813 461.713,155.613 462.577,157.197C464.449,157.629 466.465,157.989 468.625,158.277C470.928,158.421 473.088,158.349 475.104,158.061C475.824,157.917 476.616,157.701 477.48,157.413C478.344,156.981 479.208,156.693 480.072,156.549C481.656,156.261 483.168,155.901 484.608,155.469C486.191,155.037 487.559,154.461 488.711,153.741C492.887,152.301 496.919,150.357 500.806,147.909C504.694,145.462 508.078,142.798 510.958,139.918C512.686,138.766 514.557,137.182 516.573,135.166C518.733,133.15 520.389,131.278 521.541,129.551C523.701,127.247 525.573,125.447 527.157,124.151C528.885,122.855 530.468,122.279 531.908,122.423C533.06,122.423 534.14,123.143 535.148,124.583C536.3,125.879 536.228,127.319 534.932,128.903C533.492,129.767 531.98,131.063 530.396,132.79C528.813,134.518 527.157,135.742 525.429,136.462C524.133,137.326 522.477,138.91 520.461,141.214C518.589,143.518 517.005,145.246 515.709,146.397C515.133,146.973 514.341,147.693 513.334,148.557C512.47,149.277 511.75,149.997 511.174,150.717C509.158,152.445 506.998,154.029 504.694,155.469C503.83,155.181 503.182,155.325 502.75,155.901C502.318,156.477 501.742,157.053 501.022,157.629C500.59,157.917 500.086,158.205 499.51,158.493C499.079,158.781 498.647,159.069 498.215,159.357C497.063,160.365 495.767,161.372 494.327,162.38C493.031,163.388 491.663,164.252 490.223,164.972C487.343,166.7 484.464,168.14 481.584,169.292C478.704,170.588 475.896,172.172 473.16,174.044C472.296,174.188 471.504,174.26 470.784,174.26C470.064,174.404 469.345,174.548 468.625,174.692C467.761,174.98 466.969,175.124 466.249,175.124C465.673,175.124 464.809,174.98 463.657,174.692C461.065,173.972 458.905,173.108 457.177,172.1C455.449,171.092 453.722,169.652 451.994,167.78C451.13,166.916 450.194,166.124 449.186,165.404C448.178,164.684 447.386,163.892 446.81,163.028C446.378,162.308 445.874,161.156 445.298,159.573C444.722,157.989 444.218,156.333 443.786,154.605C443.354,152.733 442.994,150.933 442.706,149.205C442.418,147.477 442.274,146.181 442.274,145.318C442.562,144.742 442.922,143.734 443.354,142.294C443.642,140.854 444.002,139.342 444.434,137.758C444.722,136.03 445.01,134.446 445.298,133.006C445.442,131.566 445.514,130.559 445.514,129.983C445.658,129.839 446.018,129.263 446.594,128.255C447.17,127.103 447.818,125.879 448.538,124.583C449.114,123.287 449.618,122.135 450.05,121.127C450.482,119.975 450.698,119.255 450.698,118.967Z" style="fill:rgb(51,51,51);fill-rule:nonzero;"/>
        <path d="M583.313,149.637C583.889,148.917 584.321,148.413 584.609,148.125C584.897,147.693 585.329,147.333 585.905,147.045C586.913,144.886 587.993,143.158 589.144,141.862C590.44,140.422 591.736,139.126 593.032,137.974C594.328,136.678 595.696,135.526 597.136,134.518C598.72,133.366 600.448,131.998 602.32,130.415C603.039,130.415 603.615,130.199 604.047,129.767C604.623,129.191 605.271,128.759 605.991,128.471C606.999,127.607 607.791,126.959 608.367,126.527C609.087,126.095 609.663,125.519 610.095,124.799C611.823,123.935 613.335,122.855 614.631,121.559C616.071,120.263 617.583,119.039 619.166,117.887C620.462,117.599 621.686,117.743 622.838,118.319C623.414,119.471 623.63,120.695 623.486,121.991C623.342,123.287 622.622,124.007 621.326,124.151C620.894,124.583 620.39,125.015 619.814,125.447C619.382,125.879 618.806,126.167 618.086,126.311C617.223,126.455 616.575,126.671 616.143,126.959C615.855,127.103 615.567,127.463 615.279,128.039C615.135,129.479 614.919,130.343 614.631,130.631C614.487,130.775 614.343,130.991 614.199,131.278C613.335,132.718 612.399,134.014 611.391,135.166C610.527,136.174 609.663,137.182 608.799,138.19C607.935,139.054 607.071,140.062 606.207,141.214C605.343,142.222 604.407,143.518 603.399,145.102C602.536,145.678 601.888,146.469 601.456,147.477C598.864,148.917 596.92,150.069 595.624,150.933C594.472,151.653 593.392,152.589 592.384,153.741C591.52,154.317 591.088,154.749 591.088,155.037C591.088,155.325 590.944,155.613 590.656,155.901C589.216,157.053 588.352,157.989 588.065,158.709C587.921,159.285 587.633,159.717 587.201,160.005C585.761,161.012 584.681,161.948 583.961,162.812C583.241,163.532 582.305,164.108 581.153,164.54C580.289,165.26 579.065,166.124 577.481,167.132C575.897,168.14 574.169,169.076 572.298,169.94C570.426,170.804 568.554,171.38 566.682,171.668C564.954,172.1 563.442,172.028 562.146,171.452C561.57,171.02 561.066,170.588 560.634,170.156C560.202,169.868 559.698,169.58 559.122,169.292C558.115,168.14 557.035,167.204 555.883,166.484C554.875,165.62 553.939,164.54 553.075,163.244C552.067,161.804 551.347,160.293 550.915,158.709C550.627,156.981 550.123,155.325 549.403,153.741C549.259,152.013 549.259,150.357 549.403,148.773C549.547,147.045 549.835,145.606 550.267,144.454C551.851,139.558 553.723,135.31 555.883,131.71C558.187,128.111 559.77,124.007 560.634,119.399C559.05,117.815 558.115,116.376 557.827,115.08C557.683,113.64 557.323,111.696 556.747,109.248C553.003,111.696 549.547,114.792 546.379,118.535C543.212,122.279 540.404,126.095 537.956,129.983C536.948,131.71 536.084,133.294 535.364,134.734C534.644,136.174 533.78,137.47 532.772,138.622C532.052,139.342 531.692,139.846 531.692,140.134C531.692,140.278 531.548,140.494 531.26,140.782C530.108,142.222 529.388,143.23 529.1,143.806C528.813,144.382 528.525,144.886 528.237,145.318C527.949,145.75 527.589,146.181 527.157,146.613C526.725,147.045 526.365,147.477 526.077,147.909C524.061,150.789 522.189,153.525 520.461,156.117C518.877,158.565 517.221,161.084 515.493,163.676C514.773,164.828 514.126,166.052 513.55,167.348C512.974,168.644 512.254,169.796 511.39,170.804C509.95,170.948 509.158,170.732 509.014,170.156C508.726,169.58 508.726,169.076 509.014,168.644C508.15,168.068 507.502,167.204 507.07,166.052C506.494,164.756 506.206,163.388 506.206,161.948C506.062,160.509 506.062,159.069 506.206,157.629C506.35,156.189 506.638,154.965 507.07,153.957C506.638,152.661 506.494,151.941 506.638,151.797C506.782,151.653 506.854,151.437 506.854,151.149C508.726,148.557 510.67,145.966 512.686,143.374C514.557,140.782 516.573,138.334 518.733,136.03C519.453,135.022 520.101,134.014 520.677,133.006C521.397,131.998 522.189,131.063 523.053,130.199C524.349,127.895 525.789,125.735 527.373,123.719C529.1,121.703 530.54,119.471 531.692,117.023C532.412,116.304 532.916,115.512 533.204,114.648C533.636,113.784 534.284,113.064 535.148,112.488C536.156,110.76 536.948,109.104 537.524,107.52C538.1,105.936 538.892,104.568 539.9,103.416C540.188,102.408 540.548,101.617 540.98,101.041C541.412,100.465 541.988,99.817 542.708,99.097C542.852,98.377 543.212,97.801 543.787,97.369C544.507,96.793 545.083,96.145 545.515,95.425C545.803,94.417 546.163,93.769 546.595,93.481C547.027,93.193 547.243,92.689 547.243,91.969C547.963,91.249 548.683,90.529 549.403,89.809C550.123,88.945 550.771,87.937 551.347,86.786C553.363,85.634 554.731,85.058 555.451,85.058C556.315,85.058 556.963,84.698 557.395,83.978L561.498,83.978C563.082,83.834 563.946,84.338 564.09,85.49C564.234,85.778 564.234,86.138 564.09,86.57C563.946,87.001 563.802,87.433 563.658,87.865C563.802,89.161 563.802,89.881 563.658,90.025C563.514,90.025 563.442,90.097 563.442,90.241C563.298,90.673 563.226,91.177 563.226,91.753C563.37,92.329 563.442,92.977 563.442,93.697C563.298,94.849 563.154,95.785 563.01,96.505C562.866,97.081 563.154,97.873 563.874,98.881C564.162,99.313 564.594,99.745 565.17,100.177C565.746,100.465 566.25,100.897 566.682,101.473C567.114,101.904 567.33,102.336 567.33,102.768C567.474,103.2 567.762,103.632 568.194,104.064C568.482,104.496 568.914,104.856 569.49,105.144C570.066,105.432 570.498,105.936 570.786,106.656C571.506,107.232 571.722,107.592 571.434,107.736C571.29,107.88 571.65,108.168 572.514,108.6C574.241,110.76 575.465,112.992 576.185,115.296C577.049,117.023 577.841,118.463 578.561,119.615C579.281,120.767 579.281,121.919 578.561,123.071C578.273,123.359 577.985,123.719 577.697,124.151C577.553,124.583 577.337,125.087 577.049,125.663C576.473,126.239 575.897,126.959 575.321,127.823C575.033,128.399 574.817,128.975 574.673,129.551C574.529,129.983 574.313,130.415 574.025,130.847C572.73,132.862 571.362,134.734 569.922,136.462C568.626,138.19 567.474,139.99 566.466,141.862C566.61,146.037 567.402,149.061 568.842,150.933C570.57,152.949 571.65,153.957 572.082,153.957C572.946,154.101 573.953,153.813 575.105,153.093C576.257,152.373 577.193,151.797 577.913,151.365C578.489,151.077 578.993,150.789 579.425,150.501C579.857,150.213 580.361,149.997 580.937,149.853C582.521,149.277 583.241,149.133 583.097,149.421C582.953,149.565 583.025,149.637 583.313,149.637Z" style="fill:rgb(51,51,51);fill-rule:nonzero;"/>
    </g>
</svg>
